G04 #@! TF.FileFunction,Copper,L1,Top,Signal*
%FSLAX46Y46*%
G04 Gerber Fmt 4.6, Leading zero omitted, Abs format (unit mm)*
G04 Created by KiCad (PCBNEW 4.0.2-stable) date ven. 22 juil. 2016 18:14:01 CEST*
%MOMM*%
G01*
G04 APERTURE LIST*
%ADD10C,0.100000*%
%ADD11C,2.032000*%
%ADD12C,2.000000*%
%ADD13C,1.998980*%
%ADD14C,1.600000*%
%ADD15R,1.398880X1.699260*%
%ADD16C,0.400000*%
%ADD17C,0.250000*%
%ADD18C,0.030000*%
G04 APERTURE END LIST*
D10*
D11*
X9055100Y47142400D03*
X9055100Y44602400D03*
X9055100Y42062400D03*
X9055100Y39522400D03*
X9055100Y36982400D03*
X9055100Y34442400D03*
X9055100Y31902400D03*
X9055100Y29362400D03*
X9055100Y26822400D03*
X9055100Y24282400D03*
X9055100Y21742400D03*
X9055100Y19202400D03*
X9055100Y16662400D03*
X9055100Y14122400D03*
X9055100Y11582400D03*
X31915100Y47142400D03*
X31915100Y16662400D03*
X31915100Y14122400D03*
X31915100Y19202400D03*
X31915100Y34442400D03*
X31915100Y36982400D03*
X31915100Y31902400D03*
X31915100Y11582400D03*
X31915100Y26822400D03*
X31915100Y29362400D03*
X31915100Y24282400D03*
X31915100Y21742400D03*
X31915100Y42062400D03*
X31915100Y39522400D03*
X31915100Y44602400D03*
D12*
X45974000Y46736000D03*
X43434000Y46736000D03*
X48514000Y46736000D03*
X40894000Y29718000D03*
X43434000Y29718000D03*
X38354000Y29718000D03*
X25654000Y16256000D03*
X25654000Y18796000D03*
X25654000Y13716000D03*
X15494000Y30226000D03*
X12954000Y30226000D03*
X18034000Y30226000D03*
D13*
X12192000Y47244000D03*
X12192000Y57404000D03*
X15240000Y47244000D03*
X15240000Y57404000D03*
X38354000Y40386000D03*
X48514000Y40386000D03*
X30734000Y57404000D03*
X40894000Y57404000D03*
X38354000Y20828000D03*
X48514000Y20828000D03*
X48514000Y35306000D03*
X48514000Y25146000D03*
X26924000Y42926000D03*
X26924000Y53086000D03*
X27940000Y25400000D03*
X17780000Y25400000D03*
X22352000Y22352000D03*
X12192000Y22352000D03*
X18034000Y47244000D03*
X18034000Y57404000D03*
X26924000Y29718000D03*
X26924000Y39878000D03*
D14*
X26337260Y69088000D03*
X24338280Y69088000D03*
X22336760Y69088000D03*
D15*
X14330680Y69088000D03*
D14*
X18333720Y69088000D03*
X16332200Y69088000D03*
X20332700Y69088000D03*
X28336240Y69088000D03*
D15*
X39354760Y8636000D03*
D14*
X37353240Y8636000D03*
D15*
X47736760Y8636000D03*
D14*
X45735240Y8636000D03*
D16*
X45735240Y8636000D02*
X45735240Y8143240D01*
X45735240Y8143240D02*
X43180000Y5588000D01*
X43180000Y5588000D02*
X17018000Y5588000D01*
X17018000Y5588000D02*
X11023600Y11582400D01*
X11023600Y11582400D02*
X9055100Y11582400D01*
X18333720Y71328280D02*
X18333720Y69088000D01*
X17018000Y72644000D02*
X18333720Y71328280D01*
X10160000Y72644000D02*
X17018000Y72644000D01*
X5080000Y67564000D02*
X10160000Y72644000D01*
X9055100Y11582400D02*
X5435600Y11582400D01*
X5080000Y11938000D02*
X5080000Y67564000D01*
X5435600Y11582400D02*
X5080000Y11938000D01*
X15240000Y57404000D02*
X15240000Y60960000D01*
X16332200Y62052200D02*
X16332200Y69088000D01*
X15240000Y60960000D02*
X16332200Y62052200D01*
X18034000Y57404000D02*
X18034000Y59944000D01*
X20332700Y62242700D02*
X20332700Y69088000D01*
X18034000Y59944000D02*
X20332700Y62242700D01*
X18034000Y57404000D02*
X19812000Y57404000D01*
X20066000Y30226000D02*
X18034000Y30226000D01*
X20574000Y30734000D02*
X20066000Y30226000D01*
X20574000Y56642000D02*
X20574000Y30734000D01*
X19812000Y57404000D02*
X20574000Y56642000D01*
X20320000Y69075300D02*
X20332700Y69088000D01*
X45466000Y32766000D02*
X45466000Y36576000D01*
X24338280Y71836280D02*
X24338280Y69088000D01*
X25146000Y72644000D02*
X24338280Y71836280D01*
X36576000Y72644000D02*
X25146000Y72644000D01*
X51816000Y57404000D02*
X36576000Y72644000D01*
X51816000Y38608000D02*
X51816000Y57404000D01*
X50800000Y37592000D02*
X51816000Y38608000D01*
X46482000Y37592000D02*
X50800000Y37592000D01*
X45466000Y36576000D02*
X46482000Y37592000D01*
X48514000Y25146000D02*
X46990000Y25146000D01*
X46990000Y25146000D02*
X45466000Y26670000D01*
X45466000Y26670000D02*
X45466000Y32766000D01*
X45466000Y32766000D02*
X45466000Y33020000D01*
X45466000Y33020000D02*
X45212000Y33274000D01*
X45212000Y33274000D02*
X41910000Y33274000D01*
X38354000Y32258000D02*
X38354000Y29718000D01*
X41910000Y33274000D02*
X39370000Y33274000D01*
X39370000Y33274000D02*
X38354000Y32258000D01*
X26337260Y69088000D02*
X26337260Y65102740D01*
X40894000Y60452000D02*
X40894000Y57404000D01*
X39370000Y61976000D02*
X40894000Y60452000D01*
X29464000Y61976000D02*
X39370000Y61976000D01*
X26337260Y65102740D02*
X29464000Y61976000D01*
X40894000Y57404000D02*
X43434000Y57404000D01*
X43434000Y57404000D02*
X48514000Y52324000D01*
X48514000Y52324000D02*
X48514000Y46736000D01*
D17*
X45974000Y46736000D02*
X45974000Y43434000D01*
X48514000Y41910000D02*
X48514000Y40386000D01*
X48006000Y42418000D02*
X48514000Y41910000D01*
X46990000Y42418000D02*
X48006000Y42418000D01*
X45974000Y43434000D02*
X46990000Y42418000D01*
D16*
X48514000Y20828000D02*
X48514000Y22860000D01*
X48514000Y22860000D02*
X48260000Y23114000D01*
X48260000Y23114000D02*
X41656000Y23114000D01*
X41656000Y23114000D02*
X40894000Y23876000D01*
X40894000Y23876000D02*
X40894000Y29718000D01*
X26924000Y53086000D02*
X23622000Y53086000D01*
X21336000Y16256000D02*
X25654000Y16256000D01*
X19050000Y18542000D02*
X21336000Y16256000D01*
X19050000Y22860000D02*
X19050000Y18542000D01*
X23114000Y26924000D02*
X19050000Y22860000D01*
X23114000Y52578000D02*
X23114000Y26924000D01*
X23622000Y53086000D02*
X23114000Y52578000D01*
X15494000Y30226000D02*
X15494000Y26416000D01*
X15494000Y26416000D02*
X12192000Y22352000D01*
X9055100Y47142400D02*
X12090400Y47142400D01*
X12090400Y47142400D02*
X12192000Y47244000D01*
D17*
X12090400Y47142400D02*
X12192000Y47244000D01*
X9055100Y47142400D02*
X10007600Y47142400D01*
D16*
X9055100Y39522400D02*
X11328400Y39522400D01*
X15240000Y43434000D02*
X15240000Y47244000D01*
X11328400Y39522400D02*
X15240000Y43434000D01*
X9156700Y39624000D02*
X9055100Y39522400D01*
X31915100Y47142400D02*
X33121600Y47142400D01*
X33121600Y47142400D02*
X38354000Y41910000D01*
X38354000Y41910000D02*
X38354000Y40386000D01*
D17*
X30734000Y57404000D02*
X30226000Y57404000D01*
D16*
X30226000Y57404000D02*
X28956000Y56134000D01*
X29565600Y44602400D02*
X31915100Y44602400D01*
X28956000Y45212000D02*
X29565600Y44602400D01*
X28956000Y56134000D02*
X28956000Y45212000D01*
X38354000Y20828000D02*
X38354000Y24892000D01*
X38354000Y24892000D02*
X35052000Y28194000D01*
X35052000Y28194000D02*
X35052000Y39878000D01*
X35052000Y39878000D02*
X35052000Y41402000D01*
X35052000Y41402000D02*
X34391600Y42062400D01*
X34391600Y42062400D02*
X31915100Y42062400D01*
X48514000Y35306000D02*
X51054000Y35306000D01*
X51054000Y35306000D02*
X51562000Y34798000D01*
X51562000Y34798000D02*
X51562000Y19050000D01*
X51562000Y19050000D02*
X49022000Y16510000D01*
X49022000Y16510000D02*
X37846000Y16510000D01*
X37846000Y16510000D02*
X36322000Y18034000D01*
X36322000Y18034000D02*
X36322000Y25908000D01*
X36322000Y25908000D02*
X34290000Y27940000D01*
X34290000Y27940000D02*
X34290000Y36068000D01*
X34290000Y36068000D02*
X33375600Y36982400D01*
X33375600Y36982400D02*
X31915100Y36982400D01*
D17*
X48412400Y35204400D02*
X48514000Y35306000D01*
D16*
X31915100Y29362400D02*
X30378400Y29362400D01*
X30378400Y29362400D02*
X28448000Y27432000D01*
X28448000Y27432000D02*
X24892000Y27432000D01*
X24892000Y27432000D02*
X24892000Y42926000D01*
X24892000Y42926000D02*
X26924000Y42926000D01*
X27940000Y25400000D02*
X28448000Y25400000D01*
X28448000Y25400000D02*
X29870400Y26822400D01*
X29870400Y26822400D02*
X31915100Y26822400D01*
X22352000Y22352000D02*
X28702000Y22352000D01*
X30632400Y24282400D02*
X31915100Y24282400D01*
X28702000Y22352000D02*
X30632400Y24282400D01*
X9055100Y36982400D02*
X12344400Y36982400D01*
X18034000Y42672000D02*
X18034000Y47244000D01*
X12344400Y36982400D02*
X18034000Y42672000D01*
D17*
X9461500Y36576000D02*
X9055100Y36982400D01*
D16*
X26924000Y29718000D02*
X28956000Y29718000D01*
X28956000Y29718000D02*
X29464000Y30226000D01*
X29464000Y30226000D02*
X29464000Y34036000D01*
X29464000Y34036000D02*
X29870400Y34442400D01*
X29870400Y34442400D02*
X31915100Y34442400D01*
X26924000Y39878000D02*
X29464000Y39878000D01*
X29819600Y39522400D02*
X31915100Y39522400D01*
X29464000Y39878000D02*
X29819600Y39522400D01*
X17780000Y25400000D02*
X19558000Y25400000D01*
X22336760Y63738760D02*
X22336760Y69088000D01*
X21844000Y63246000D02*
X22336760Y63738760D01*
X21844000Y27686000D02*
X21844000Y63246000D01*
X19558000Y25400000D02*
X21844000Y27686000D01*
X17780000Y25400000D02*
X17780000Y17272000D01*
X21336000Y13716000D02*
X25654000Y13716000D01*
X17780000Y17272000D02*
X21336000Y13716000D01*
X12192000Y57404000D02*
X12192000Y61722000D01*
X14330680Y63860680D02*
X14330680Y69088000D01*
X12192000Y61722000D02*
X14330680Y63860680D01*
X31915100Y16662400D02*
X34137600Y16662400D01*
X37353240Y13446760D02*
X37353240Y8636000D01*
X34137600Y16662400D02*
X37353240Y13446760D01*
X31915100Y19202400D02*
X33629600Y19202400D01*
X39116000Y13716000D02*
X39116000Y8874760D01*
X33629600Y19202400D02*
X39116000Y13716000D01*
X39116000Y8874760D02*
X39354760Y8636000D01*
D18*
G36*
X53912000Y62913300D02*
X53912000Y444000D01*
X190000Y444000D01*
X190000Y67564000D01*
X4565000Y67564000D01*
X4565000Y11938000D01*
X4604202Y11740918D01*
X4715840Y11573840D01*
X5071440Y11218240D01*
X5238518Y11106602D01*
X5435600Y11067400D01*
X7827749Y11067400D01*
X7926075Y10829434D01*
X8300165Y10454691D01*
X8789186Y10251631D01*
X9318691Y10251169D01*
X9808066Y10453375D01*
X10182809Y10827465D01*
X10282439Y11067400D01*
X10810280Y11067400D01*
X16653840Y5223840D01*
X16820918Y5112202D01*
X17018000Y5073000D01*
X43180000Y5073000D01*
X43377082Y5112202D01*
X43544160Y5223840D01*
X45841227Y7520907D01*
X45956054Y7520807D01*
X46366012Y7690198D01*
X46679940Y8003579D01*
X46822320Y8346468D01*
X46822320Y7743604D01*
X46855052Y7664582D01*
X46915532Y7604102D01*
X46994554Y7571370D01*
X47498010Y7571370D01*
X47551760Y7625120D01*
X47551760Y8451000D01*
X47921760Y8451000D01*
X47921760Y7625120D01*
X47975510Y7571370D01*
X48478966Y7571370D01*
X48557988Y7604102D01*
X48618468Y7664582D01*
X48651200Y7743604D01*
X48651200Y8397250D01*
X48597450Y8451000D01*
X47921760Y8451000D01*
X47551760Y8451000D01*
X47531760Y8451000D01*
X47531760Y8821000D01*
X47551760Y8821000D01*
X47551760Y9646880D01*
X47921760Y9646880D01*
X47921760Y8821000D01*
X48597450Y8821000D01*
X48651200Y8874750D01*
X48651200Y9528396D01*
X48618468Y9607418D01*
X48557988Y9667898D01*
X48478966Y9700630D01*
X47975510Y9700630D01*
X47921760Y9646880D01*
X47551760Y9646880D01*
X47498010Y9700630D01*
X46994554Y9700630D01*
X46915532Y9667898D01*
X46855052Y9607418D01*
X46822320Y9528396D01*
X46822320Y8924853D01*
X46681042Y9266772D01*
X46367661Y9580700D01*
X45958000Y9750806D01*
X45514426Y9751193D01*
X45104468Y9581802D01*
X44790540Y9268421D01*
X44620434Y8858760D01*
X44620047Y8415186D01*
X44789438Y8005228D01*
X44829138Y7965458D01*
X42966680Y6103000D01*
X17231320Y6103000D01*
X12015511Y11318809D01*
X30583869Y11318809D01*
X30786075Y10829434D01*
X31160165Y10454691D01*
X31649186Y10251631D01*
X32178691Y10251169D01*
X32668066Y10453375D01*
X33042809Y10827465D01*
X33245869Y11316486D01*
X33246331Y11845991D01*
X33044125Y12335366D01*
X32670035Y12710109D01*
X32181133Y12913120D01*
X32292021Y12925217D01*
X32495114Y13009340D01*
X32623647Y13152223D01*
X31915100Y13860770D01*
X31206553Y13152223D01*
X31335086Y13009340D01*
X31662973Y12913621D01*
X31651509Y12913631D01*
X31162134Y12711425D01*
X30787391Y12337335D01*
X30584331Y11848314D01*
X30583869Y11318809D01*
X12015511Y11318809D01*
X11387760Y11946560D01*
X11220682Y12058198D01*
X11023600Y12097400D01*
X10282451Y12097400D01*
X10184125Y12335366D01*
X9810035Y12710109D01*
X9321133Y12913120D01*
X9432021Y12925217D01*
X9635114Y13009340D01*
X9763647Y13152223D01*
X9055100Y13860770D01*
X8346553Y13152223D01*
X8475086Y13009340D01*
X8802973Y12913621D01*
X8791509Y12913631D01*
X8302134Y12711425D01*
X7927391Y12337335D01*
X7827761Y12097400D01*
X5648920Y12097400D01*
X5595000Y12151320D01*
X5595000Y14232313D01*
X7804805Y14232313D01*
X7857917Y13745479D01*
X7942040Y13542386D01*
X8084923Y13413853D01*
X8793470Y14122400D01*
X9316730Y14122400D01*
X10025277Y13413853D01*
X10168160Y13542386D01*
X10305395Y14012487D01*
X10252283Y14499321D01*
X10168160Y14702414D01*
X10025277Y14830947D01*
X9316730Y14122400D01*
X8793470Y14122400D01*
X8084923Y14830947D01*
X7942040Y14702414D01*
X7804805Y14232313D01*
X5595000Y14232313D01*
X5595000Y21478809D01*
X7723869Y21478809D01*
X7926075Y20989434D01*
X8300165Y20614691D01*
X8643078Y20472301D01*
X8302134Y20331425D01*
X7927391Y19957335D01*
X7724331Y19468314D01*
X7723869Y18938809D01*
X7926075Y18449434D01*
X8300165Y18074691D01*
X8643078Y17932301D01*
X8302134Y17791425D01*
X7927391Y17417335D01*
X7724331Y16928314D01*
X7723869Y16398809D01*
X7926075Y15909434D01*
X8300165Y15534691D01*
X8789067Y15331680D01*
X8678179Y15319583D01*
X8475086Y15235460D01*
X8346553Y15092577D01*
X9055100Y14384030D01*
X9763647Y15092577D01*
X9635114Y15235460D01*
X9307227Y15331179D01*
X9318691Y15331169D01*
X9808066Y15533375D01*
X10182809Y15907465D01*
X10385869Y16396486D01*
X10386331Y16925991D01*
X10184125Y17415366D01*
X9810035Y17790109D01*
X9467122Y17932499D01*
X9808066Y18073375D01*
X10182809Y18447465D01*
X10385869Y18936486D01*
X10386331Y19465991D01*
X10184125Y19955366D01*
X9810035Y20330109D01*
X9467122Y20472499D01*
X9808066Y20613375D01*
X10182809Y20987465D01*
X10385869Y21476486D01*
X10386331Y22005991D01*
X10184125Y22495366D01*
X9810035Y22870109D01*
X9321133Y23073120D01*
X9432021Y23085217D01*
X9635114Y23169340D01*
X9763647Y23312223D01*
X9055100Y24020770D01*
X8346553Y23312223D01*
X8475086Y23169340D01*
X8802973Y23073621D01*
X8791509Y23073631D01*
X8302134Y22871425D01*
X7927391Y22497335D01*
X7724331Y22008314D01*
X7723869Y21478809D01*
X5595000Y21478809D01*
X5595000Y24392313D01*
X7804805Y24392313D01*
X7857917Y23905479D01*
X7942040Y23702386D01*
X8084923Y23573853D01*
X8793470Y24282400D01*
X9316730Y24282400D01*
X10025277Y23573853D01*
X10168160Y23702386D01*
X10305395Y24172487D01*
X10252283Y24659321D01*
X10168160Y24862414D01*
X10025277Y24990947D01*
X9316730Y24282400D01*
X8793470Y24282400D01*
X8084923Y24990947D01*
X7942040Y24862414D01*
X7804805Y24392313D01*
X5595000Y24392313D01*
X5595000Y46878809D01*
X7723869Y46878809D01*
X7926075Y46389434D01*
X8300165Y46014691D01*
X8643078Y45872301D01*
X8302134Y45731425D01*
X7927391Y45357335D01*
X7724331Y44868314D01*
X7723869Y44338809D01*
X7926075Y43849434D01*
X8300165Y43474691D01*
X8643078Y43332301D01*
X8302134Y43191425D01*
X7927391Y42817335D01*
X7724331Y42328314D01*
X7723869Y41798809D01*
X7926075Y41309434D01*
X8300165Y40934691D01*
X8643078Y40792301D01*
X8302134Y40651425D01*
X7927391Y40277335D01*
X7724331Y39788314D01*
X7723869Y39258809D01*
X7926075Y38769434D01*
X8300165Y38394691D01*
X8643078Y38252301D01*
X8302134Y38111425D01*
X7927391Y37737335D01*
X7724331Y37248314D01*
X7723869Y36718809D01*
X7926075Y36229434D01*
X8300165Y35854691D01*
X8643078Y35712301D01*
X8302134Y35571425D01*
X7927391Y35197335D01*
X7724331Y34708314D01*
X7723869Y34178809D01*
X7926075Y33689434D01*
X8300165Y33314691D01*
X8643078Y33172301D01*
X8302134Y33031425D01*
X7927391Y32657335D01*
X7724331Y32168314D01*
X7723869Y31638809D01*
X7926075Y31149434D01*
X8300165Y30774691D01*
X8643078Y30632301D01*
X8302134Y30491425D01*
X7927391Y30117335D01*
X7724331Y29628314D01*
X7723869Y29098809D01*
X7926075Y28609434D01*
X8300165Y28234691D01*
X8643078Y28092301D01*
X8302134Y27951425D01*
X7927391Y27577335D01*
X7724331Y27088314D01*
X7723869Y26558809D01*
X7926075Y26069434D01*
X8300165Y25694691D01*
X8789067Y25491680D01*
X8678179Y25479583D01*
X8475086Y25395460D01*
X8346553Y25252577D01*
X9055100Y24544030D01*
X9763647Y25252577D01*
X9635114Y25395460D01*
X9307227Y25491179D01*
X9318691Y25491169D01*
X9808066Y25693375D01*
X10182809Y26067465D01*
X10385869Y26556486D01*
X10386331Y27085991D01*
X10184125Y27575366D01*
X9810035Y27950109D01*
X9467122Y28092499D01*
X9808066Y28233375D01*
X10182809Y28607465D01*
X10385869Y29096486D01*
X10386018Y29267500D01*
X12257129Y29267500D01*
X12383684Y29126286D01*
X12847939Y28991746D01*
X13328341Y29045110D01*
X13524316Y29126286D01*
X13650871Y29267500D01*
X12954000Y29964370D01*
X12257129Y29267500D01*
X10386018Y29267500D01*
X10386331Y29625991D01*
X10184125Y30115366D01*
X9967808Y30332061D01*
X11719746Y30332061D01*
X11773110Y29851659D01*
X11854286Y29655684D01*
X11995500Y29529129D01*
X12692370Y30226000D01*
X11995500Y30922871D01*
X11854286Y30796316D01*
X11719746Y30332061D01*
X9967808Y30332061D01*
X9810035Y30490109D01*
X9467122Y30632499D01*
X9808066Y30773375D01*
X10182809Y31147465D01*
X10198187Y31184500D01*
X12257129Y31184500D01*
X12954000Y30487630D01*
X13650871Y31184500D01*
X13524316Y31325714D01*
X13060061Y31460254D01*
X12579659Y31406890D01*
X12383684Y31325714D01*
X12257129Y31184500D01*
X10198187Y31184500D01*
X10385869Y31636486D01*
X10386331Y32165991D01*
X10184125Y32655366D01*
X9810035Y33030109D01*
X9467122Y33172499D01*
X9808066Y33313375D01*
X10182809Y33687465D01*
X10385869Y34176486D01*
X10386331Y34705991D01*
X10184125Y35195366D01*
X9810035Y35570109D01*
X9467122Y35712499D01*
X9808066Y35853375D01*
X10182809Y36227465D01*
X10282439Y36467400D01*
X12344400Y36467400D01*
X12541482Y36506602D01*
X12708560Y36618240D01*
X18398160Y42307840D01*
X18509798Y42474918D01*
X18549000Y42672000D01*
X18549000Y46034514D01*
X18777626Y46128980D01*
X19147720Y46498429D01*
X19348261Y46981385D01*
X19348717Y47504321D01*
X19149020Y47987626D01*
X18779571Y48357720D01*
X18296615Y48558261D01*
X17773679Y48558717D01*
X17290374Y48359020D01*
X16920280Y47989571D01*
X16719739Y47506615D01*
X16719283Y46983679D01*
X16918980Y46500374D01*
X17288429Y46130280D01*
X17519000Y46034538D01*
X17519000Y42885320D01*
X12131080Y37497400D01*
X10282451Y37497400D01*
X10184125Y37735366D01*
X9810035Y38110109D01*
X9467122Y38252499D01*
X9808066Y38393375D01*
X10182809Y38767465D01*
X10282439Y39007400D01*
X11328400Y39007400D01*
X11525482Y39046602D01*
X11692560Y39158240D01*
X15604160Y43069840D01*
X15715798Y43236918D01*
X15755000Y43434000D01*
X15755000Y46034514D01*
X15983626Y46128980D01*
X16353720Y46498429D01*
X16554261Y46981385D01*
X16554717Y47504321D01*
X16355020Y47987626D01*
X15985571Y48357720D01*
X15502615Y48558261D01*
X14979679Y48558717D01*
X14496374Y48359020D01*
X14126280Y47989571D01*
X13925739Y47506615D01*
X13925283Y46983679D01*
X14124980Y46500374D01*
X14494429Y46130280D01*
X14725000Y46034538D01*
X14725000Y43647320D01*
X11115080Y40037400D01*
X10282451Y40037400D01*
X10184125Y40275366D01*
X9810035Y40650109D01*
X9467122Y40792499D01*
X9808066Y40933375D01*
X10182809Y41307465D01*
X10385869Y41796486D01*
X10386331Y42325991D01*
X10184125Y42815366D01*
X9810035Y43190109D01*
X9467122Y43332499D01*
X9808066Y43473375D01*
X10182809Y43847465D01*
X10385869Y44336486D01*
X10386331Y44865991D01*
X10184125Y45355366D01*
X9810035Y45730109D01*
X9467122Y45872499D01*
X9808066Y46013375D01*
X10182809Y46387465D01*
X10282439Y46627400D01*
X11024494Y46627400D01*
X11076980Y46500374D01*
X11446429Y46130280D01*
X11929385Y45929739D01*
X12452321Y45929283D01*
X12935626Y46128980D01*
X13305720Y46498429D01*
X13506261Y46981385D01*
X13506717Y47504321D01*
X13307020Y47987626D01*
X12937571Y48357720D01*
X12454615Y48558261D01*
X11931679Y48558717D01*
X11448374Y48359020D01*
X11078280Y47989571D01*
X10940350Y47657400D01*
X10282451Y47657400D01*
X10184125Y47895366D01*
X9810035Y48270109D01*
X9321014Y48473169D01*
X8791509Y48473631D01*
X8302134Y48271425D01*
X7927391Y47897335D01*
X7724331Y47408314D01*
X7723869Y46878809D01*
X5595000Y46878809D01*
X5595000Y67350680D01*
X10373320Y72129000D01*
X16804680Y72129000D01*
X17818720Y71114960D01*
X17818720Y70081638D01*
X17702948Y70033802D01*
X17389020Y69720421D01*
X17333032Y69585588D01*
X17278002Y69718772D01*
X16964621Y70032700D01*
X16554960Y70202806D01*
X16111386Y70203193D01*
X15701428Y70033802D01*
X15387500Y69720421D01*
X15351291Y69633220D01*
X15351291Y69937630D01*
X15329326Y70054362D01*
X15260338Y70161573D01*
X15155074Y70233497D01*
X15030120Y70258801D01*
X13631240Y70258801D01*
X13514508Y70236836D01*
X13407297Y70167848D01*
X13335373Y70062584D01*
X13310069Y69937630D01*
X13310069Y68238370D01*
X13332034Y68121638D01*
X13401022Y68014427D01*
X13506286Y67942503D01*
X13631240Y67917199D01*
X13815680Y67917199D01*
X13815680Y64074000D01*
X11827840Y62086160D01*
X11716202Y61919082D01*
X11677000Y61722000D01*
X11677000Y58613486D01*
X11448374Y58519020D01*
X11078280Y58149571D01*
X10877739Y57666615D01*
X10877283Y57143679D01*
X11076980Y56660374D01*
X11446429Y56290280D01*
X11929385Y56089739D01*
X12452321Y56089283D01*
X12935626Y56288980D01*
X13305720Y56658429D01*
X13506261Y57141385D01*
X13506717Y57664321D01*
X13307020Y58147626D01*
X12937571Y58517720D01*
X12707000Y58613462D01*
X12707000Y61508680D01*
X14694840Y63496520D01*
X14806478Y63663598D01*
X14845680Y63860680D01*
X14845680Y67917199D01*
X15030120Y67917199D01*
X15146852Y67939164D01*
X15254063Y68008152D01*
X15325987Y68113416D01*
X15351291Y68238370D01*
X15351291Y68542194D01*
X15386398Y68457228D01*
X15699779Y68143300D01*
X15817200Y68094543D01*
X15817200Y62265520D01*
X14875840Y61324160D01*
X14764202Y61157082D01*
X14725000Y60960000D01*
X14725000Y58613486D01*
X14496374Y58519020D01*
X14126280Y58149571D01*
X13925739Y57666615D01*
X13925283Y57143679D01*
X14124980Y56660374D01*
X14494429Y56290280D01*
X14977385Y56089739D01*
X15500321Y56089283D01*
X15983626Y56288980D01*
X16353720Y56658429D01*
X16554261Y57141385D01*
X16554717Y57664321D01*
X16355020Y58147626D01*
X15985571Y58517720D01*
X15755000Y58613462D01*
X15755000Y60746680D01*
X16696360Y61688040D01*
X16807998Y61855118D01*
X16847200Y62052200D01*
X16847200Y68094362D01*
X16962972Y68142198D01*
X17276900Y68455579D01*
X17332888Y68590412D01*
X17387918Y68457228D01*
X17701299Y68143300D01*
X18110960Y67973194D01*
X18554534Y67972807D01*
X18964492Y68142198D01*
X19278420Y68455579D01*
X19333134Y68587346D01*
X19386898Y68457228D01*
X19700279Y68143300D01*
X19817700Y68094543D01*
X19817700Y62456020D01*
X17669840Y60308160D01*
X17558202Y60141082D01*
X17519000Y59944000D01*
X17519000Y58613486D01*
X17290374Y58519020D01*
X16920280Y58149571D01*
X16719739Y57666615D01*
X16719283Y57143679D01*
X16918980Y56660374D01*
X17288429Y56290280D01*
X17771385Y56089739D01*
X18294321Y56089283D01*
X18777626Y56288980D01*
X19147720Y56658429D01*
X19243462Y56889000D01*
X19598680Y56889000D01*
X20059000Y56428680D01*
X20059000Y30947320D01*
X19852680Y30741000D01*
X19244037Y30741000D01*
X19149452Y30969914D01*
X18779860Y31340152D01*
X18296717Y31540771D01*
X17773578Y31541227D01*
X17290086Y31341452D01*
X16919848Y30971860D01*
X16763864Y30596209D01*
X16609452Y30969914D01*
X16239860Y31340152D01*
X15756717Y31540771D01*
X15233578Y31541227D01*
X14750086Y31341452D01*
X14379848Y30971860D01*
X14179229Y30488717D01*
X14178980Y30203424D01*
X14134890Y30600341D01*
X14053714Y30796316D01*
X13912500Y30922871D01*
X13215630Y30226000D01*
X13912500Y29529129D01*
X14053714Y29655684D01*
X14178879Y30087590D01*
X14178773Y29965578D01*
X14378548Y29482086D01*
X14748140Y29111848D01*
X14979000Y29015986D01*
X14979000Y26598846D01*
X12560538Y23622278D01*
X12454615Y23666261D01*
X11931679Y23666717D01*
X11448374Y23467020D01*
X11078280Y23097571D01*
X10877739Y22614615D01*
X10877283Y22091679D01*
X11076980Y21608374D01*
X11446429Y21238280D01*
X11929385Y21037739D01*
X12452321Y21037283D01*
X12935626Y21236980D01*
X13305720Y21606429D01*
X13506261Y22089385D01*
X13506717Y22612321D01*
X13358509Y22971012D01*
X15893699Y26091245D01*
X15928456Y26157046D01*
X15969798Y26218918D01*
X15975029Y26245214D01*
X15987552Y26268923D01*
X15994482Y26343015D01*
X16009000Y26416000D01*
X16009000Y29015963D01*
X16237914Y29110548D01*
X16608152Y29480140D01*
X16764136Y29855791D01*
X16918548Y29482086D01*
X17288140Y29111848D01*
X17771283Y28911229D01*
X18294422Y28910773D01*
X18777914Y29110548D01*
X19148152Y29480140D01*
X19244014Y29711000D01*
X20066000Y29711000D01*
X20263082Y29750202D01*
X20430160Y29861840D01*
X20938160Y30369840D01*
X21049798Y30536918D01*
X21089000Y30734000D01*
X21089000Y56642000D01*
X21049798Y56839082D01*
X20938160Y57006160D01*
X20176160Y57768160D01*
X20009082Y57879798D01*
X19812000Y57919000D01*
X19243486Y57919000D01*
X19149020Y58147626D01*
X18779571Y58517720D01*
X18549000Y58613462D01*
X18549000Y59730680D01*
X20696860Y61878540D01*
X20808498Y62045618D01*
X20847700Y62242700D01*
X20847700Y68094362D01*
X20963472Y68142198D01*
X21277400Y68455579D01*
X21334661Y68593478D01*
X21390958Y68457228D01*
X21704339Y68143300D01*
X21821760Y68094543D01*
X21821760Y63952080D01*
X21479840Y63610160D01*
X21368202Y63443082D01*
X21329000Y63246000D01*
X21329000Y27899320D01*
X19344680Y25915000D01*
X18989486Y25915000D01*
X18895020Y26143626D01*
X18525571Y26513720D01*
X18042615Y26714261D01*
X17519679Y26714717D01*
X17036374Y26515020D01*
X16666280Y26145571D01*
X16465739Y25662615D01*
X16465283Y25139679D01*
X16664980Y24656374D01*
X17034429Y24286280D01*
X17265000Y24190538D01*
X17265000Y17272000D01*
X17304202Y17074918D01*
X17415840Y16907840D01*
X20971840Y13351840D01*
X21138918Y13240202D01*
X21336000Y13201000D01*
X24443963Y13201000D01*
X24538548Y12972086D01*
X24908140Y12601848D01*
X25391283Y12401229D01*
X25914422Y12400773D01*
X26397914Y12600548D01*
X26768152Y12970140D01*
X26968771Y13453283D01*
X26969227Y13976422D01*
X26863495Y14232313D01*
X30664805Y14232313D01*
X30717917Y13745479D01*
X30802040Y13542386D01*
X30944923Y13413853D01*
X31653470Y14122400D01*
X32176730Y14122400D01*
X32885277Y13413853D01*
X33028160Y13542386D01*
X33165395Y14012487D01*
X33112283Y14499321D01*
X33028160Y14702414D01*
X32885277Y14830947D01*
X32176730Y14122400D01*
X31653470Y14122400D01*
X30944923Y14830947D01*
X30802040Y14702414D01*
X30664805Y14232313D01*
X26863495Y14232313D01*
X26769452Y14459914D01*
X26399860Y14830152D01*
X26024209Y14986136D01*
X26397914Y15140548D01*
X26768152Y15510140D01*
X26968771Y15993283D01*
X26969227Y16516422D01*
X26769452Y16999914D01*
X26399860Y17370152D01*
X25916717Y17570771D01*
X25631424Y17571020D01*
X26028341Y17615110D01*
X26224316Y17696286D01*
X26350871Y17837500D01*
X25654000Y18534370D01*
X24957129Y17837500D01*
X25083684Y17696286D01*
X25515590Y17571121D01*
X25393578Y17571227D01*
X24910086Y17371452D01*
X24539848Y17001860D01*
X24443986Y16771000D01*
X21549320Y16771000D01*
X19565000Y18755320D01*
X19565000Y18902061D01*
X24419746Y18902061D01*
X24473110Y18421659D01*
X24554286Y18225684D01*
X24695500Y18099129D01*
X25392370Y18796000D01*
X25915630Y18796000D01*
X26612500Y18099129D01*
X26753714Y18225684D01*
X26888254Y18689939D01*
X26834890Y19170341D01*
X26753714Y19366316D01*
X26612500Y19492871D01*
X25915630Y18796000D01*
X25392370Y18796000D01*
X24695500Y19492871D01*
X24554286Y19366316D01*
X24419746Y18902061D01*
X19565000Y18902061D01*
X19565000Y19754500D01*
X24957129Y19754500D01*
X25654000Y19057630D01*
X26350871Y19754500D01*
X26224316Y19895714D01*
X25760061Y20030254D01*
X25279659Y19976890D01*
X25083684Y19895714D01*
X24957129Y19754500D01*
X19565000Y19754500D01*
X19565000Y22091679D01*
X21037283Y22091679D01*
X21236980Y21608374D01*
X21606429Y21238280D01*
X22089385Y21037739D01*
X22612321Y21037283D01*
X23095626Y21236980D01*
X23465720Y21606429D01*
X23561462Y21837000D01*
X28702000Y21837000D01*
X28899082Y21876202D01*
X29066160Y21987840D01*
X30733937Y23655617D01*
X30786075Y23529434D01*
X31160165Y23154691D01*
X31503078Y23012301D01*
X31162134Y22871425D01*
X30787391Y22497335D01*
X30584331Y22008314D01*
X30583869Y21478809D01*
X30786075Y20989434D01*
X31160165Y20614691D01*
X31503078Y20472301D01*
X31162134Y20331425D01*
X30787391Y19957335D01*
X30584331Y19468314D01*
X30583869Y18938809D01*
X30786075Y18449434D01*
X31160165Y18074691D01*
X31503078Y17932301D01*
X31162134Y17791425D01*
X30787391Y17417335D01*
X30584331Y16928314D01*
X30583869Y16398809D01*
X30786075Y15909434D01*
X31160165Y15534691D01*
X31649067Y15331680D01*
X31538179Y15319583D01*
X31335086Y15235460D01*
X31206553Y15092577D01*
X31915100Y14384030D01*
X32623647Y15092577D01*
X32495114Y15235460D01*
X32167227Y15331179D01*
X32178691Y15331169D01*
X32668066Y15533375D01*
X33042809Y15907465D01*
X33142439Y16147400D01*
X33924280Y16147400D01*
X36838240Y13233440D01*
X36838240Y9629638D01*
X36722468Y9581802D01*
X36408540Y9268421D01*
X36238434Y8858760D01*
X36238047Y8415186D01*
X36407438Y8005228D01*
X36720819Y7691300D01*
X37130480Y7521194D01*
X37574054Y7520807D01*
X37984012Y7690198D01*
X38297940Y8003579D01*
X38334149Y8090780D01*
X38334149Y7786370D01*
X38356114Y7669638D01*
X38425102Y7562427D01*
X38530366Y7490503D01*
X38655320Y7465199D01*
X40054200Y7465199D01*
X40170932Y7487164D01*
X40278143Y7556152D01*
X40350067Y7661416D01*
X40375371Y7786370D01*
X40375371Y9485630D01*
X40353406Y9602362D01*
X40284418Y9709573D01*
X40179154Y9781497D01*
X40054200Y9806801D01*
X39631000Y9806801D01*
X39631000Y13716000D01*
X39591798Y13913082D01*
X39480160Y14080160D01*
X33993760Y19566560D01*
X33826682Y19678198D01*
X33629600Y19717400D01*
X33142451Y19717400D01*
X33044125Y19955366D01*
X32670035Y20330109D01*
X32327122Y20472499D01*
X32668066Y20613375D01*
X33042809Y20987465D01*
X33245869Y21476486D01*
X33246331Y22005991D01*
X33044125Y22495366D01*
X32670035Y22870109D01*
X32327122Y23012499D01*
X32668066Y23153375D01*
X33042809Y23527465D01*
X33245869Y24016486D01*
X33246331Y24545991D01*
X33044125Y25035366D01*
X32670035Y25410109D01*
X32327122Y25552499D01*
X32668066Y25693375D01*
X33042809Y26067465D01*
X33245869Y26556486D01*
X33246331Y27085991D01*
X33044125Y27575366D01*
X32670035Y27950109D01*
X32327122Y28092499D01*
X32668066Y28233375D01*
X33042809Y28607465D01*
X33245869Y29096486D01*
X33246331Y29625991D01*
X33044125Y30115366D01*
X32670035Y30490109D01*
X32181133Y30693120D01*
X32292021Y30705217D01*
X32495114Y30789340D01*
X32623647Y30932223D01*
X31915100Y31640770D01*
X31206553Y30932223D01*
X31335086Y30789340D01*
X31662973Y30693621D01*
X31651509Y30693631D01*
X31162134Y30491425D01*
X30787391Y30117335D01*
X30687761Y29877400D01*
X30378400Y29877400D01*
X30181318Y29838198D01*
X30014240Y29726560D01*
X28234680Y27947000D01*
X25407000Y27947000D01*
X25407000Y39617679D01*
X25609283Y39617679D01*
X25808980Y39134374D01*
X26178429Y38764280D01*
X26661385Y38563739D01*
X27184321Y38563283D01*
X27667626Y38762980D01*
X28037720Y39132429D01*
X28133462Y39363000D01*
X29250680Y39363000D01*
X29455440Y39158240D01*
X29622518Y39046602D01*
X29819600Y39007400D01*
X30687749Y39007400D01*
X30786075Y38769434D01*
X31160165Y38394691D01*
X31503078Y38252301D01*
X31162134Y38111425D01*
X30787391Y37737335D01*
X30584331Y37248314D01*
X30583869Y36718809D01*
X30786075Y36229434D01*
X31160165Y35854691D01*
X31503078Y35712301D01*
X31162134Y35571425D01*
X30787391Y35197335D01*
X30687761Y34957400D01*
X29870400Y34957400D01*
X29673318Y34918198D01*
X29506240Y34806560D01*
X29099840Y34400160D01*
X28988202Y34233082D01*
X28949000Y34036000D01*
X28949000Y30439320D01*
X28742680Y30233000D01*
X28133486Y30233000D01*
X28039020Y30461626D01*
X27669571Y30831720D01*
X27186615Y31032261D01*
X26663679Y31032717D01*
X26180374Y30833020D01*
X25810280Y30463571D01*
X25609739Y29980615D01*
X25609283Y29457679D01*
X25808980Y28974374D01*
X26178429Y28604280D01*
X26661385Y28403739D01*
X27184321Y28403283D01*
X27667626Y28602980D01*
X28037720Y28972429D01*
X28133462Y29203000D01*
X28956000Y29203000D01*
X29153082Y29242202D01*
X29320160Y29353840D01*
X29828160Y29861840D01*
X29939798Y30028918D01*
X29979000Y30226000D01*
X29979000Y32012313D01*
X30664805Y32012313D01*
X30717917Y31525479D01*
X30802040Y31322386D01*
X30944923Y31193853D01*
X31653470Y31902400D01*
X32176730Y31902400D01*
X32885277Y31193853D01*
X33028160Y31322386D01*
X33165395Y31792487D01*
X33112283Y32279321D01*
X33028160Y32482414D01*
X32885277Y32610947D01*
X32176730Y31902400D01*
X31653470Y31902400D01*
X30944923Y32610947D01*
X30802040Y32482414D01*
X30664805Y32012313D01*
X29979000Y32012313D01*
X29979000Y33822680D01*
X30083720Y33927400D01*
X30687749Y33927400D01*
X30786075Y33689434D01*
X31160165Y33314691D01*
X31649067Y33111680D01*
X31538179Y33099583D01*
X31335086Y33015460D01*
X31206553Y32872577D01*
X31915100Y32164030D01*
X32623647Y32872577D01*
X32495114Y33015460D01*
X32167227Y33111179D01*
X32178691Y33111169D01*
X32668066Y33313375D01*
X33042809Y33687465D01*
X33245869Y34176486D01*
X33246331Y34705991D01*
X33044125Y35195366D01*
X32670035Y35570109D01*
X32327122Y35712499D01*
X32668066Y35853375D01*
X33042809Y36227465D01*
X33142439Y36467400D01*
X33162280Y36467400D01*
X33775000Y35854680D01*
X33775000Y27940000D01*
X33814202Y27742918D01*
X33925840Y27575840D01*
X35807000Y25694680D01*
X35807000Y18034000D01*
X35846202Y17836918D01*
X35957840Y17669840D01*
X37481840Y16145840D01*
X37648918Y16034202D01*
X37846000Y15995000D01*
X49022000Y15995000D01*
X49219082Y16034202D01*
X49386160Y16145840D01*
X51926160Y18685840D01*
X52037798Y18852918D01*
X52077000Y19050000D01*
X52077000Y34798000D01*
X52037798Y34995082D01*
X51926160Y35162160D01*
X51418160Y35670160D01*
X51251082Y35781798D01*
X51054000Y35821000D01*
X49723486Y35821000D01*
X49629020Y36049626D01*
X49259571Y36419720D01*
X48776615Y36620261D01*
X48253679Y36620717D01*
X47770374Y36421020D01*
X47400280Y36051571D01*
X47199739Y35568615D01*
X47199283Y35045679D01*
X47398980Y34562374D01*
X47768429Y34192280D01*
X48251385Y33991739D01*
X48774321Y33991283D01*
X49257626Y34190980D01*
X49627720Y34560429D01*
X49723462Y34791000D01*
X50840680Y34791000D01*
X51047000Y34584680D01*
X51047000Y19263320D01*
X48808680Y17025000D01*
X38059320Y17025000D01*
X36837000Y18247320D01*
X36837000Y25680680D01*
X37839000Y24678680D01*
X37839000Y22037486D01*
X37610374Y21943020D01*
X37240280Y21573571D01*
X37039739Y21090615D01*
X37039283Y20567679D01*
X37238980Y20084374D01*
X37608429Y19714280D01*
X38091385Y19513739D01*
X38614321Y19513283D01*
X39097626Y19712980D01*
X39467720Y20082429D01*
X39668261Y20565385D01*
X39668717Y21088321D01*
X39469020Y21571626D01*
X39099571Y21941720D01*
X38869000Y22037462D01*
X38869000Y24892000D01*
X38829798Y25089082D01*
X38718160Y25256160D01*
X35567000Y28407320D01*
X35567000Y41402000D01*
X35527798Y41599082D01*
X35416160Y41766160D01*
X34755760Y42426560D01*
X34588682Y42538198D01*
X34391600Y42577400D01*
X33142451Y42577400D01*
X33044125Y42815366D01*
X32670035Y43190109D01*
X32327122Y43332499D01*
X32668066Y43473375D01*
X33042809Y43847465D01*
X33245869Y44336486D01*
X33246331Y44865991D01*
X33044125Y45355366D01*
X32670035Y45730109D01*
X32327122Y45872499D01*
X32668066Y46013375D01*
X33042809Y46387465D01*
X33073736Y46461944D01*
X37839000Y41696680D01*
X37839000Y41595486D01*
X37610374Y41501020D01*
X37240280Y41131571D01*
X37039739Y40648615D01*
X37039283Y40125679D01*
X37238980Y39642374D01*
X37608429Y39272280D01*
X38091385Y39071739D01*
X38614321Y39071283D01*
X39097626Y39270980D01*
X39467720Y39640429D01*
X39668261Y40123385D01*
X39668717Y40646321D01*
X39469020Y41129626D01*
X39099571Y41499720D01*
X38869000Y41595462D01*
X38869000Y41910000D01*
X38829798Y42107082D01*
X38718160Y42274160D01*
X35214820Y45777500D01*
X42737129Y45777500D01*
X42863684Y45636286D01*
X43327939Y45501746D01*
X43808341Y45555110D01*
X44004316Y45636286D01*
X44130871Y45777500D01*
X43434000Y46474370D01*
X42737129Y45777500D01*
X35214820Y45777500D01*
X34150259Y46842061D01*
X42199746Y46842061D01*
X42253110Y46361659D01*
X42334286Y46165684D01*
X42475500Y46039129D01*
X43172370Y46736000D01*
X42475500Y47432871D01*
X42334286Y47306316D01*
X42199746Y46842061D01*
X34150259Y46842061D01*
X33485760Y47506560D01*
X33318682Y47618198D01*
X33144318Y47652881D01*
X33127122Y47694500D01*
X42737129Y47694500D01*
X43434000Y46997630D01*
X44130871Y47694500D01*
X44004316Y47835714D01*
X43540061Y47970254D01*
X43059659Y47916890D01*
X42863684Y47835714D01*
X42737129Y47694500D01*
X33127122Y47694500D01*
X33044125Y47895366D01*
X32670035Y48270109D01*
X32181014Y48473169D01*
X31651509Y48473631D01*
X31162134Y48271425D01*
X30787391Y47897335D01*
X30584331Y47408314D01*
X30583869Y46878809D01*
X30786075Y46389434D01*
X31160165Y46014691D01*
X31503078Y45872301D01*
X31162134Y45731425D01*
X30787391Y45357335D01*
X30687761Y45117400D01*
X29778920Y45117400D01*
X29471000Y45425320D01*
X29471000Y55920680D01*
X29914579Y56364259D01*
X29988429Y56290280D01*
X30471385Y56089739D01*
X30994321Y56089283D01*
X31477626Y56288980D01*
X31847720Y56658429D01*
X32048261Y57141385D01*
X32048717Y57664321D01*
X31849020Y58147626D01*
X31479571Y58517720D01*
X30996615Y58718261D01*
X30473679Y58718717D01*
X29990374Y58519020D01*
X29620280Y58149571D01*
X29419739Y57666615D01*
X29419442Y57325762D01*
X28591840Y56498160D01*
X28480202Y56331082D01*
X28441000Y56134000D01*
X28441000Y45212000D01*
X28480202Y45014918D01*
X28591840Y44847840D01*
X29201440Y44238240D01*
X29368518Y44126602D01*
X29565600Y44087400D01*
X30687749Y44087400D01*
X30786075Y43849434D01*
X31160165Y43474691D01*
X31503078Y43332301D01*
X31162134Y43191425D01*
X30787391Y42817335D01*
X30584331Y42328314D01*
X30583869Y41798809D01*
X30786075Y41309434D01*
X31160165Y40934691D01*
X31503078Y40792301D01*
X31162134Y40651425D01*
X30787391Y40277335D01*
X30687761Y40037400D01*
X30032920Y40037400D01*
X29828160Y40242160D01*
X29661082Y40353798D01*
X29464000Y40393000D01*
X28133486Y40393000D01*
X28039020Y40621626D01*
X27669571Y40991720D01*
X27186615Y41192261D01*
X26663679Y41192717D01*
X26180374Y40993020D01*
X25810280Y40623571D01*
X25609739Y40140615D01*
X25609283Y39617679D01*
X25407000Y39617679D01*
X25407000Y42411000D01*
X25714514Y42411000D01*
X25808980Y42182374D01*
X26178429Y41812280D01*
X26661385Y41611739D01*
X27184321Y41611283D01*
X27667626Y41810980D01*
X28037720Y42180429D01*
X28238261Y42663385D01*
X28238717Y43186321D01*
X28039020Y43669626D01*
X27669571Y44039720D01*
X27186615Y44240261D01*
X26663679Y44240717D01*
X26180374Y44041020D01*
X25810280Y43671571D01*
X25714538Y43441000D01*
X24892000Y43441000D01*
X24694918Y43401798D01*
X24527840Y43290160D01*
X24416202Y43123082D01*
X24377000Y42926000D01*
X24377000Y27432000D01*
X24416202Y27234918D01*
X24527840Y27067840D01*
X24694918Y26956202D01*
X24892000Y26917000D01*
X28448000Y26917000D01*
X28645082Y26956202D01*
X28812160Y27067840D01*
X30591720Y28847400D01*
X30687749Y28847400D01*
X30786075Y28609434D01*
X31160165Y28234691D01*
X31503078Y28092301D01*
X31162134Y27951425D01*
X30787391Y27577335D01*
X30687761Y27337400D01*
X29870400Y27337400D01*
X29673318Y27298198D01*
X29506240Y27186560D01*
X28759421Y26439741D01*
X28685571Y26513720D01*
X28202615Y26714261D01*
X27679679Y26714717D01*
X27196374Y26515020D01*
X26826280Y26145571D01*
X26625739Y25662615D01*
X26625283Y25139679D01*
X26824980Y24656374D01*
X27194429Y24286280D01*
X27677385Y24085739D01*
X28200321Y24085283D01*
X28683626Y24284980D01*
X29053720Y24654429D01*
X29254261Y25137385D01*
X29254558Y25478238D01*
X30083720Y26307400D01*
X30687749Y26307400D01*
X30786075Y26069434D01*
X31160165Y25694691D01*
X31503078Y25552301D01*
X31162134Y25411425D01*
X30787391Y25037335D01*
X30687761Y24797400D01*
X30632400Y24797400D01*
X30435318Y24758198D01*
X30268240Y24646560D01*
X28488680Y22867000D01*
X23561486Y22867000D01*
X23467020Y23095626D01*
X23097571Y23465720D01*
X22614615Y23666261D01*
X22091679Y23666717D01*
X21608374Y23467020D01*
X21238280Y23097571D01*
X21037739Y22614615D01*
X21037283Y22091679D01*
X19565000Y22091679D01*
X19565000Y22646680D01*
X23478160Y26559840D01*
X23589798Y26726918D01*
X23629000Y26924000D01*
X23629000Y52364680D01*
X23835320Y52571000D01*
X25714514Y52571000D01*
X25808980Y52342374D01*
X26178429Y51972280D01*
X26661385Y51771739D01*
X27184321Y51771283D01*
X27667626Y51970980D01*
X28037720Y52340429D01*
X28238261Y52823385D01*
X28238717Y53346321D01*
X28039020Y53829626D01*
X27669571Y54199720D01*
X27186615Y54400261D01*
X26663679Y54400717D01*
X26180374Y54201020D01*
X25810280Y53831571D01*
X25714538Y53601000D01*
X23622000Y53601000D01*
X23424918Y53561798D01*
X23257840Y53450160D01*
X22749840Y52942160D01*
X22638202Y52775082D01*
X22599000Y52578000D01*
X22599000Y27137320D01*
X18685840Y23224160D01*
X18574202Y23057082D01*
X18535000Y22860000D01*
X18535000Y18542000D01*
X18574202Y18344918D01*
X18685840Y18177840D01*
X20971840Y15891840D01*
X21138918Y15780202D01*
X21336000Y15741000D01*
X24443963Y15741000D01*
X24538548Y15512086D01*
X24908140Y15141848D01*
X25283791Y14985864D01*
X24910086Y14831452D01*
X24539848Y14461860D01*
X24443986Y14231000D01*
X21549320Y14231000D01*
X18295000Y17485320D01*
X18295000Y24190514D01*
X18523626Y24284980D01*
X18893720Y24654429D01*
X18989462Y24885000D01*
X19558000Y24885000D01*
X19755082Y24924202D01*
X19922160Y25035840D01*
X22208160Y27321840D01*
X22319798Y27488918D01*
X22359000Y27686000D01*
X22359000Y63032680D01*
X22700920Y63374600D01*
X22812558Y63541678D01*
X22851760Y63738760D01*
X22851760Y68094362D01*
X22967532Y68142198D01*
X23281460Y68455579D01*
X23337448Y68590412D01*
X23392478Y68457228D01*
X23705859Y68143300D01*
X24115520Y67973194D01*
X24559094Y67972807D01*
X24969052Y68142198D01*
X25282980Y68455579D01*
X25337694Y68587346D01*
X25391458Y68457228D01*
X25704839Y68143300D01*
X25822260Y68094543D01*
X25822260Y65102740D01*
X25861462Y64905658D01*
X25973100Y64738580D01*
X29099840Y61611840D01*
X29266918Y61500202D01*
X29464000Y61461000D01*
X39156680Y61461000D01*
X40379000Y60238680D01*
X40379000Y58613486D01*
X40150374Y58519020D01*
X39780280Y58149571D01*
X39579739Y57666615D01*
X39579283Y57143679D01*
X39778980Y56660374D01*
X40148429Y56290280D01*
X40631385Y56089739D01*
X41154321Y56089283D01*
X41637626Y56288980D01*
X42007720Y56658429D01*
X42103462Y56889000D01*
X43220680Y56889000D01*
X47999000Y52110680D01*
X47999000Y47946037D01*
X47770086Y47851452D01*
X47399848Y47481860D01*
X47243864Y47106209D01*
X47089452Y47479914D01*
X46719860Y47850152D01*
X46236717Y48050771D01*
X45713578Y48051227D01*
X45230086Y47851452D01*
X44859848Y47481860D01*
X44659229Y46998717D01*
X44658980Y46713424D01*
X44614890Y47110341D01*
X44533714Y47306316D01*
X44392500Y47432871D01*
X43695630Y46736000D01*
X44392500Y46039129D01*
X44533714Y46165684D01*
X44658879Y46597590D01*
X44658773Y46475578D01*
X44858548Y45992086D01*
X45228140Y45621848D01*
X45534000Y45494844D01*
X45534000Y43434000D01*
X45567493Y43265619D01*
X45662873Y43122873D01*
X46678873Y42106873D01*
X46821619Y42011493D01*
X46990000Y41978000D01*
X47823746Y41978000D01*
X48074000Y41727746D01*
X48074000Y41626475D01*
X47770374Y41501020D01*
X47400280Y41131571D01*
X47199739Y40648615D01*
X47199283Y40125679D01*
X47398980Y39642374D01*
X47768429Y39272280D01*
X48251385Y39071739D01*
X48774321Y39071283D01*
X49257626Y39270980D01*
X49627720Y39640429D01*
X49828261Y40123385D01*
X49828717Y40646321D01*
X49629020Y41129626D01*
X49259571Y41499720D01*
X48954000Y41626604D01*
X48954000Y41910000D01*
X48920507Y42078381D01*
X48825127Y42221127D01*
X48317127Y42729127D01*
X48174381Y42824507D01*
X48006000Y42858000D01*
X47172254Y42858000D01*
X46414000Y43616254D01*
X46414000Y45494973D01*
X46717914Y45620548D01*
X47088152Y45990140D01*
X47244136Y46365791D01*
X47398548Y45992086D01*
X47768140Y45621848D01*
X48251283Y45421229D01*
X48774422Y45420773D01*
X49257914Y45620548D01*
X49628152Y45990140D01*
X49828771Y46473283D01*
X49829227Y46996422D01*
X49629452Y47479914D01*
X49259860Y47850152D01*
X49029000Y47946014D01*
X49029000Y52324000D01*
X48989798Y52521082D01*
X48878160Y52688160D01*
X43798160Y57768160D01*
X43631082Y57879798D01*
X43434000Y57919000D01*
X42103486Y57919000D01*
X42009020Y58147626D01*
X41639571Y58517720D01*
X41409000Y58613462D01*
X41409000Y60452000D01*
X41369798Y60649082D01*
X41258160Y60816160D01*
X39734160Y62340160D01*
X39567082Y62451798D01*
X39370000Y62491000D01*
X29677320Y62491000D01*
X26852260Y65316060D01*
X26852260Y68094362D01*
X26968032Y68142198D01*
X27101929Y68275862D01*
X27785732Y68275862D01*
X27887416Y68155506D01*
X28278430Y68054731D01*
X28678246Y68111261D01*
X28785064Y68155506D01*
X28886748Y68275862D01*
X28336240Y68826370D01*
X27785732Y68275862D01*
X27101929Y68275862D01*
X27281960Y68455579D01*
X27380999Y68694092D01*
X27403746Y68639176D01*
X27524102Y68537492D01*
X28074610Y69088000D01*
X28597870Y69088000D01*
X29148378Y68537492D01*
X29268734Y68639176D01*
X29369509Y69030190D01*
X29312979Y69430006D01*
X29268734Y69536824D01*
X29148378Y69638508D01*
X28597870Y69088000D01*
X28074610Y69088000D01*
X27524102Y69638508D01*
X27403746Y69536824D01*
X27386266Y69469000D01*
X27283062Y69718772D01*
X27102013Y69900138D01*
X27785732Y69900138D01*
X28336240Y69349630D01*
X28886748Y69900138D01*
X28785064Y70020494D01*
X28394050Y70121269D01*
X27994234Y70064739D01*
X27887416Y70020494D01*
X27785732Y69900138D01*
X27102013Y69900138D01*
X26969681Y70032700D01*
X26560020Y70202806D01*
X26116446Y70203193D01*
X25706488Y70033802D01*
X25392560Y69720421D01*
X25337846Y69588654D01*
X25284082Y69718772D01*
X24970701Y70032700D01*
X24853280Y70081457D01*
X24853280Y71622960D01*
X25359320Y72129000D01*
X36362680Y72129000D01*
X51301000Y57190680D01*
X51301000Y38821320D01*
X50586680Y38107000D01*
X46482000Y38107000D01*
X46284918Y38067798D01*
X46117840Y37956160D01*
X45101840Y36940160D01*
X44990202Y36773082D01*
X44951000Y36576000D01*
X44951000Y33789000D01*
X39370000Y33789000D01*
X39172918Y33749798D01*
X39005840Y33638160D01*
X37989840Y32622160D01*
X37878202Y32455082D01*
X37839000Y32258000D01*
X37839000Y30928037D01*
X37610086Y30833452D01*
X37239848Y30463860D01*
X37039229Y29980717D01*
X37038773Y29457578D01*
X37238548Y28974086D01*
X37608140Y28603848D01*
X38091283Y28403229D01*
X38614422Y28402773D01*
X39097914Y28602548D01*
X39468152Y28972140D01*
X39624136Y29347791D01*
X39778548Y28974086D01*
X40148140Y28603848D01*
X40379000Y28507986D01*
X40379000Y23876000D01*
X40418202Y23678918D01*
X40529840Y23511840D01*
X41291840Y22749840D01*
X41458918Y22638202D01*
X41656000Y22599000D01*
X47999000Y22599000D01*
X47999000Y22037486D01*
X47770374Y21943020D01*
X47400280Y21573571D01*
X47199739Y21090615D01*
X47199283Y20567679D01*
X47398980Y20084374D01*
X47768429Y19714280D01*
X48251385Y19513739D01*
X48774321Y19513283D01*
X49257626Y19712980D01*
X49627720Y20082429D01*
X49828261Y20565385D01*
X49828717Y21088321D01*
X49629020Y21571626D01*
X49259571Y21941720D01*
X49029000Y22037462D01*
X49029000Y22860000D01*
X48989798Y23057082D01*
X48878160Y23224160D01*
X48624160Y23478160D01*
X48457082Y23589798D01*
X48260000Y23629000D01*
X41869320Y23629000D01*
X41409000Y24089320D01*
X41409000Y28507963D01*
X41637914Y28602548D01*
X41795140Y28759500D01*
X42737129Y28759500D01*
X42863684Y28618286D01*
X43327939Y28483746D01*
X43808341Y28537110D01*
X44004316Y28618286D01*
X44130871Y28759500D01*
X43434000Y29456370D01*
X42737129Y28759500D01*
X41795140Y28759500D01*
X42008152Y28972140D01*
X42208771Y29455283D01*
X42209020Y29740576D01*
X42253110Y29343659D01*
X42334286Y29147684D01*
X42475500Y29021129D01*
X43172370Y29718000D01*
X43695630Y29718000D01*
X44392500Y29021129D01*
X44533714Y29147684D01*
X44668254Y29611939D01*
X44614890Y30092341D01*
X44533714Y30288316D01*
X44392500Y30414871D01*
X43695630Y29718000D01*
X43172370Y29718000D01*
X42475500Y30414871D01*
X42334286Y30288316D01*
X42209121Y29856410D01*
X42209227Y29978422D01*
X42009452Y30461914D01*
X41795241Y30676500D01*
X42737129Y30676500D01*
X43434000Y29979630D01*
X44130871Y30676500D01*
X44004316Y30817714D01*
X43540061Y30952254D01*
X43059659Y30898890D01*
X42863684Y30817714D01*
X42737129Y30676500D01*
X41795241Y30676500D01*
X41639860Y30832152D01*
X41156717Y31032771D01*
X40633578Y31033227D01*
X40150086Y30833452D01*
X39779848Y30463860D01*
X39623864Y30088209D01*
X39469452Y30461914D01*
X39099860Y30832152D01*
X38869000Y30928014D01*
X38869000Y32044680D01*
X39583320Y32759000D01*
X44951000Y32759000D01*
X44951000Y26670000D01*
X44990202Y26472918D01*
X45101840Y26305840D01*
X46625840Y24781840D01*
X46792918Y24670202D01*
X46990000Y24631000D01*
X47304514Y24631000D01*
X47398980Y24402374D01*
X47768429Y24032280D01*
X48251385Y23831739D01*
X48774321Y23831283D01*
X49257626Y24030980D01*
X49627720Y24400429D01*
X49828261Y24883385D01*
X49828717Y25406321D01*
X49629020Y25889626D01*
X49259571Y26259720D01*
X48776615Y26460261D01*
X48253679Y26460717D01*
X47770374Y26261020D01*
X47400280Y25891571D01*
X47304538Y25661000D01*
X47203320Y25661000D01*
X45981000Y26883320D01*
X45981000Y36362680D01*
X46695320Y37077000D01*
X50800000Y37077000D01*
X50997082Y37116202D01*
X51164160Y37227840D01*
X52180160Y38243840D01*
X52291798Y38410918D01*
X52331000Y38608000D01*
X52331000Y57404000D01*
X52291798Y57601082D01*
X52180160Y57768160D01*
X36940160Y73008160D01*
X36773082Y73119798D01*
X36576000Y73159000D01*
X25146000Y73159000D01*
X24948918Y73119798D01*
X24781840Y73008160D01*
X23974120Y72200440D01*
X23862482Y72033362D01*
X23823280Y71836280D01*
X23823280Y70081638D01*
X23707508Y70033802D01*
X23393580Y69720421D01*
X23337592Y69585588D01*
X23282562Y69718772D01*
X22969181Y70032700D01*
X22559520Y70202806D01*
X22115946Y70203193D01*
X21705988Y70033802D01*
X21392060Y69720421D01*
X21334799Y69582522D01*
X21278502Y69718772D01*
X20965121Y70032700D01*
X20555460Y70202806D01*
X20111886Y70203193D01*
X19701928Y70033802D01*
X19388000Y69720421D01*
X19333286Y69588654D01*
X19279522Y69718772D01*
X18966141Y70032700D01*
X18848720Y70081457D01*
X18848720Y71328280D01*
X18809518Y71525362D01*
X18697880Y71692440D01*
X17382160Y73008160D01*
X17215082Y73119798D01*
X17018000Y73159000D01*
X10160000Y73159000D01*
X9962918Y73119798D01*
X9795840Y73008160D01*
X4715840Y67928160D01*
X4604202Y67761082D01*
X4565000Y67564000D01*
X190000Y67564000D01*
X190000Y75502000D01*
X41323300Y75502000D01*
X53912000Y62913300D01*
X53912000Y62913300D01*
G37*
X53912000Y62913300D02*
X53912000Y444000D01*
X190000Y444000D01*
X190000Y67564000D01*
X4565000Y67564000D01*
X4565000Y11938000D01*
X4604202Y11740918D01*
X4715840Y11573840D01*
X5071440Y11218240D01*
X5238518Y11106602D01*
X5435600Y11067400D01*
X7827749Y11067400D01*
X7926075Y10829434D01*
X8300165Y10454691D01*
X8789186Y10251631D01*
X9318691Y10251169D01*
X9808066Y10453375D01*
X10182809Y10827465D01*
X10282439Y11067400D01*
X10810280Y11067400D01*
X16653840Y5223840D01*
X16820918Y5112202D01*
X17018000Y5073000D01*
X43180000Y5073000D01*
X43377082Y5112202D01*
X43544160Y5223840D01*
X45841227Y7520907D01*
X45956054Y7520807D01*
X46366012Y7690198D01*
X46679940Y8003579D01*
X46822320Y8346468D01*
X46822320Y7743604D01*
X46855052Y7664582D01*
X46915532Y7604102D01*
X46994554Y7571370D01*
X47498010Y7571370D01*
X47551760Y7625120D01*
X47551760Y8451000D01*
X47921760Y8451000D01*
X47921760Y7625120D01*
X47975510Y7571370D01*
X48478966Y7571370D01*
X48557988Y7604102D01*
X48618468Y7664582D01*
X48651200Y7743604D01*
X48651200Y8397250D01*
X48597450Y8451000D01*
X47921760Y8451000D01*
X47551760Y8451000D01*
X47531760Y8451000D01*
X47531760Y8821000D01*
X47551760Y8821000D01*
X47551760Y9646880D01*
X47921760Y9646880D01*
X47921760Y8821000D01*
X48597450Y8821000D01*
X48651200Y8874750D01*
X48651200Y9528396D01*
X48618468Y9607418D01*
X48557988Y9667898D01*
X48478966Y9700630D01*
X47975510Y9700630D01*
X47921760Y9646880D01*
X47551760Y9646880D01*
X47498010Y9700630D01*
X46994554Y9700630D01*
X46915532Y9667898D01*
X46855052Y9607418D01*
X46822320Y9528396D01*
X46822320Y8924853D01*
X46681042Y9266772D01*
X46367661Y9580700D01*
X45958000Y9750806D01*
X45514426Y9751193D01*
X45104468Y9581802D01*
X44790540Y9268421D01*
X44620434Y8858760D01*
X44620047Y8415186D01*
X44789438Y8005228D01*
X44829138Y7965458D01*
X42966680Y6103000D01*
X17231320Y6103000D01*
X12015511Y11318809D01*
X30583869Y11318809D01*
X30786075Y10829434D01*
X31160165Y10454691D01*
X31649186Y10251631D01*
X32178691Y10251169D01*
X32668066Y10453375D01*
X33042809Y10827465D01*
X33245869Y11316486D01*
X33246331Y11845991D01*
X33044125Y12335366D01*
X32670035Y12710109D01*
X32181133Y12913120D01*
X32292021Y12925217D01*
X32495114Y13009340D01*
X32623647Y13152223D01*
X31915100Y13860770D01*
X31206553Y13152223D01*
X31335086Y13009340D01*
X31662973Y12913621D01*
X31651509Y12913631D01*
X31162134Y12711425D01*
X30787391Y12337335D01*
X30584331Y11848314D01*
X30583869Y11318809D01*
X12015511Y11318809D01*
X11387760Y11946560D01*
X11220682Y12058198D01*
X11023600Y12097400D01*
X10282451Y12097400D01*
X10184125Y12335366D01*
X9810035Y12710109D01*
X9321133Y12913120D01*
X9432021Y12925217D01*
X9635114Y13009340D01*
X9763647Y13152223D01*
X9055100Y13860770D01*
X8346553Y13152223D01*
X8475086Y13009340D01*
X8802973Y12913621D01*
X8791509Y12913631D01*
X8302134Y12711425D01*
X7927391Y12337335D01*
X7827761Y12097400D01*
X5648920Y12097400D01*
X5595000Y12151320D01*
X5595000Y14232313D01*
X7804805Y14232313D01*
X7857917Y13745479D01*
X7942040Y13542386D01*
X8084923Y13413853D01*
X8793470Y14122400D01*
X9316730Y14122400D01*
X10025277Y13413853D01*
X10168160Y13542386D01*
X10305395Y14012487D01*
X10252283Y14499321D01*
X10168160Y14702414D01*
X10025277Y14830947D01*
X9316730Y14122400D01*
X8793470Y14122400D01*
X8084923Y14830947D01*
X7942040Y14702414D01*
X7804805Y14232313D01*
X5595000Y14232313D01*
X5595000Y21478809D01*
X7723869Y21478809D01*
X7926075Y20989434D01*
X8300165Y20614691D01*
X8643078Y20472301D01*
X8302134Y20331425D01*
X7927391Y19957335D01*
X7724331Y19468314D01*
X7723869Y18938809D01*
X7926075Y18449434D01*
X8300165Y18074691D01*
X8643078Y17932301D01*
X8302134Y17791425D01*
X7927391Y17417335D01*
X7724331Y16928314D01*
X7723869Y16398809D01*
X7926075Y15909434D01*
X8300165Y15534691D01*
X8789067Y15331680D01*
X8678179Y15319583D01*
X8475086Y15235460D01*
X8346553Y15092577D01*
X9055100Y14384030D01*
X9763647Y15092577D01*
X9635114Y15235460D01*
X9307227Y15331179D01*
X9318691Y15331169D01*
X9808066Y15533375D01*
X10182809Y15907465D01*
X10385869Y16396486D01*
X10386331Y16925991D01*
X10184125Y17415366D01*
X9810035Y17790109D01*
X9467122Y17932499D01*
X9808066Y18073375D01*
X10182809Y18447465D01*
X10385869Y18936486D01*
X10386331Y19465991D01*
X10184125Y19955366D01*
X9810035Y20330109D01*
X9467122Y20472499D01*
X9808066Y20613375D01*
X10182809Y20987465D01*
X10385869Y21476486D01*
X10386331Y22005991D01*
X10184125Y22495366D01*
X9810035Y22870109D01*
X9321133Y23073120D01*
X9432021Y23085217D01*
X9635114Y23169340D01*
X9763647Y23312223D01*
X9055100Y24020770D01*
X8346553Y23312223D01*
X8475086Y23169340D01*
X8802973Y23073621D01*
X8791509Y23073631D01*
X8302134Y22871425D01*
X7927391Y22497335D01*
X7724331Y22008314D01*
X7723869Y21478809D01*
X5595000Y21478809D01*
X5595000Y24392313D01*
X7804805Y24392313D01*
X7857917Y23905479D01*
X7942040Y23702386D01*
X8084923Y23573853D01*
X8793470Y24282400D01*
X9316730Y24282400D01*
X10025277Y23573853D01*
X10168160Y23702386D01*
X10305395Y24172487D01*
X10252283Y24659321D01*
X10168160Y24862414D01*
X10025277Y24990947D01*
X9316730Y24282400D01*
X8793470Y24282400D01*
X8084923Y24990947D01*
X7942040Y24862414D01*
X7804805Y24392313D01*
X5595000Y24392313D01*
X5595000Y46878809D01*
X7723869Y46878809D01*
X7926075Y46389434D01*
X8300165Y46014691D01*
X8643078Y45872301D01*
X8302134Y45731425D01*
X7927391Y45357335D01*
X7724331Y44868314D01*
X7723869Y44338809D01*
X7926075Y43849434D01*
X8300165Y43474691D01*
X8643078Y43332301D01*
X8302134Y43191425D01*
X7927391Y42817335D01*
X7724331Y42328314D01*
X7723869Y41798809D01*
X7926075Y41309434D01*
X8300165Y40934691D01*
X8643078Y40792301D01*
X8302134Y40651425D01*
X7927391Y40277335D01*
X7724331Y39788314D01*
X7723869Y39258809D01*
X7926075Y38769434D01*
X8300165Y38394691D01*
X8643078Y38252301D01*
X8302134Y38111425D01*
X7927391Y37737335D01*
X7724331Y37248314D01*
X7723869Y36718809D01*
X7926075Y36229434D01*
X8300165Y35854691D01*
X8643078Y35712301D01*
X8302134Y35571425D01*
X7927391Y35197335D01*
X7724331Y34708314D01*
X7723869Y34178809D01*
X7926075Y33689434D01*
X8300165Y33314691D01*
X8643078Y33172301D01*
X8302134Y33031425D01*
X7927391Y32657335D01*
X7724331Y32168314D01*
X7723869Y31638809D01*
X7926075Y31149434D01*
X8300165Y30774691D01*
X8643078Y30632301D01*
X8302134Y30491425D01*
X7927391Y30117335D01*
X7724331Y29628314D01*
X7723869Y29098809D01*
X7926075Y28609434D01*
X8300165Y28234691D01*
X8643078Y28092301D01*
X8302134Y27951425D01*
X7927391Y27577335D01*
X7724331Y27088314D01*
X7723869Y26558809D01*
X7926075Y26069434D01*
X8300165Y25694691D01*
X8789067Y25491680D01*
X8678179Y25479583D01*
X8475086Y25395460D01*
X8346553Y25252577D01*
X9055100Y24544030D01*
X9763647Y25252577D01*
X9635114Y25395460D01*
X9307227Y25491179D01*
X9318691Y25491169D01*
X9808066Y25693375D01*
X10182809Y26067465D01*
X10385869Y26556486D01*
X10386331Y27085991D01*
X10184125Y27575366D01*
X9810035Y27950109D01*
X9467122Y28092499D01*
X9808066Y28233375D01*
X10182809Y28607465D01*
X10385869Y29096486D01*
X10386018Y29267500D01*
X12257129Y29267500D01*
X12383684Y29126286D01*
X12847939Y28991746D01*
X13328341Y29045110D01*
X13524316Y29126286D01*
X13650871Y29267500D01*
X12954000Y29964370D01*
X12257129Y29267500D01*
X10386018Y29267500D01*
X10386331Y29625991D01*
X10184125Y30115366D01*
X9967808Y30332061D01*
X11719746Y30332061D01*
X11773110Y29851659D01*
X11854286Y29655684D01*
X11995500Y29529129D01*
X12692370Y30226000D01*
X11995500Y30922871D01*
X11854286Y30796316D01*
X11719746Y30332061D01*
X9967808Y30332061D01*
X9810035Y30490109D01*
X9467122Y30632499D01*
X9808066Y30773375D01*
X10182809Y31147465D01*
X10198187Y31184500D01*
X12257129Y31184500D01*
X12954000Y30487630D01*
X13650871Y31184500D01*
X13524316Y31325714D01*
X13060061Y31460254D01*
X12579659Y31406890D01*
X12383684Y31325714D01*
X12257129Y31184500D01*
X10198187Y31184500D01*
X10385869Y31636486D01*
X10386331Y32165991D01*
X10184125Y32655366D01*
X9810035Y33030109D01*
X9467122Y33172499D01*
X9808066Y33313375D01*
X10182809Y33687465D01*
X10385869Y34176486D01*
X10386331Y34705991D01*
X10184125Y35195366D01*
X9810035Y35570109D01*
X9467122Y35712499D01*
X9808066Y35853375D01*
X10182809Y36227465D01*
X10282439Y36467400D01*
X12344400Y36467400D01*
X12541482Y36506602D01*
X12708560Y36618240D01*
X18398160Y42307840D01*
X18509798Y42474918D01*
X18549000Y42672000D01*
X18549000Y46034514D01*
X18777626Y46128980D01*
X19147720Y46498429D01*
X19348261Y46981385D01*
X19348717Y47504321D01*
X19149020Y47987626D01*
X18779571Y48357720D01*
X18296615Y48558261D01*
X17773679Y48558717D01*
X17290374Y48359020D01*
X16920280Y47989571D01*
X16719739Y47506615D01*
X16719283Y46983679D01*
X16918980Y46500374D01*
X17288429Y46130280D01*
X17519000Y46034538D01*
X17519000Y42885320D01*
X12131080Y37497400D01*
X10282451Y37497400D01*
X10184125Y37735366D01*
X9810035Y38110109D01*
X9467122Y38252499D01*
X9808066Y38393375D01*
X10182809Y38767465D01*
X10282439Y39007400D01*
X11328400Y39007400D01*
X11525482Y39046602D01*
X11692560Y39158240D01*
X15604160Y43069840D01*
X15715798Y43236918D01*
X15755000Y43434000D01*
X15755000Y46034514D01*
X15983626Y46128980D01*
X16353720Y46498429D01*
X16554261Y46981385D01*
X16554717Y47504321D01*
X16355020Y47987626D01*
X15985571Y48357720D01*
X15502615Y48558261D01*
X14979679Y48558717D01*
X14496374Y48359020D01*
X14126280Y47989571D01*
X13925739Y47506615D01*
X13925283Y46983679D01*
X14124980Y46500374D01*
X14494429Y46130280D01*
X14725000Y46034538D01*
X14725000Y43647320D01*
X11115080Y40037400D01*
X10282451Y40037400D01*
X10184125Y40275366D01*
X9810035Y40650109D01*
X9467122Y40792499D01*
X9808066Y40933375D01*
X10182809Y41307465D01*
X10385869Y41796486D01*
X10386331Y42325991D01*
X10184125Y42815366D01*
X9810035Y43190109D01*
X9467122Y43332499D01*
X9808066Y43473375D01*
X10182809Y43847465D01*
X10385869Y44336486D01*
X10386331Y44865991D01*
X10184125Y45355366D01*
X9810035Y45730109D01*
X9467122Y45872499D01*
X9808066Y46013375D01*
X10182809Y46387465D01*
X10282439Y46627400D01*
X11024494Y46627400D01*
X11076980Y46500374D01*
X11446429Y46130280D01*
X11929385Y45929739D01*
X12452321Y45929283D01*
X12935626Y46128980D01*
X13305720Y46498429D01*
X13506261Y46981385D01*
X13506717Y47504321D01*
X13307020Y47987626D01*
X12937571Y48357720D01*
X12454615Y48558261D01*
X11931679Y48558717D01*
X11448374Y48359020D01*
X11078280Y47989571D01*
X10940350Y47657400D01*
X10282451Y47657400D01*
X10184125Y47895366D01*
X9810035Y48270109D01*
X9321014Y48473169D01*
X8791509Y48473631D01*
X8302134Y48271425D01*
X7927391Y47897335D01*
X7724331Y47408314D01*
X7723869Y46878809D01*
X5595000Y46878809D01*
X5595000Y67350680D01*
X10373320Y72129000D01*
X16804680Y72129000D01*
X17818720Y71114960D01*
X17818720Y70081638D01*
X17702948Y70033802D01*
X17389020Y69720421D01*
X17333032Y69585588D01*
X17278002Y69718772D01*
X16964621Y70032700D01*
X16554960Y70202806D01*
X16111386Y70203193D01*
X15701428Y70033802D01*
X15387500Y69720421D01*
X15351291Y69633220D01*
X15351291Y69937630D01*
X15329326Y70054362D01*
X15260338Y70161573D01*
X15155074Y70233497D01*
X15030120Y70258801D01*
X13631240Y70258801D01*
X13514508Y70236836D01*
X13407297Y70167848D01*
X13335373Y70062584D01*
X13310069Y69937630D01*
X13310069Y68238370D01*
X13332034Y68121638D01*
X13401022Y68014427D01*
X13506286Y67942503D01*
X13631240Y67917199D01*
X13815680Y67917199D01*
X13815680Y64074000D01*
X11827840Y62086160D01*
X11716202Y61919082D01*
X11677000Y61722000D01*
X11677000Y58613486D01*
X11448374Y58519020D01*
X11078280Y58149571D01*
X10877739Y57666615D01*
X10877283Y57143679D01*
X11076980Y56660374D01*
X11446429Y56290280D01*
X11929385Y56089739D01*
X12452321Y56089283D01*
X12935626Y56288980D01*
X13305720Y56658429D01*
X13506261Y57141385D01*
X13506717Y57664321D01*
X13307020Y58147626D01*
X12937571Y58517720D01*
X12707000Y58613462D01*
X12707000Y61508680D01*
X14694840Y63496520D01*
X14806478Y63663598D01*
X14845680Y63860680D01*
X14845680Y67917199D01*
X15030120Y67917199D01*
X15146852Y67939164D01*
X15254063Y68008152D01*
X15325987Y68113416D01*
X15351291Y68238370D01*
X15351291Y68542194D01*
X15386398Y68457228D01*
X15699779Y68143300D01*
X15817200Y68094543D01*
X15817200Y62265520D01*
X14875840Y61324160D01*
X14764202Y61157082D01*
X14725000Y60960000D01*
X14725000Y58613486D01*
X14496374Y58519020D01*
X14126280Y58149571D01*
X13925739Y57666615D01*
X13925283Y57143679D01*
X14124980Y56660374D01*
X14494429Y56290280D01*
X14977385Y56089739D01*
X15500321Y56089283D01*
X15983626Y56288980D01*
X16353720Y56658429D01*
X16554261Y57141385D01*
X16554717Y57664321D01*
X16355020Y58147626D01*
X15985571Y58517720D01*
X15755000Y58613462D01*
X15755000Y60746680D01*
X16696360Y61688040D01*
X16807998Y61855118D01*
X16847200Y62052200D01*
X16847200Y68094362D01*
X16962972Y68142198D01*
X17276900Y68455579D01*
X17332888Y68590412D01*
X17387918Y68457228D01*
X17701299Y68143300D01*
X18110960Y67973194D01*
X18554534Y67972807D01*
X18964492Y68142198D01*
X19278420Y68455579D01*
X19333134Y68587346D01*
X19386898Y68457228D01*
X19700279Y68143300D01*
X19817700Y68094543D01*
X19817700Y62456020D01*
X17669840Y60308160D01*
X17558202Y60141082D01*
X17519000Y59944000D01*
X17519000Y58613486D01*
X17290374Y58519020D01*
X16920280Y58149571D01*
X16719739Y57666615D01*
X16719283Y57143679D01*
X16918980Y56660374D01*
X17288429Y56290280D01*
X17771385Y56089739D01*
X18294321Y56089283D01*
X18777626Y56288980D01*
X19147720Y56658429D01*
X19243462Y56889000D01*
X19598680Y56889000D01*
X20059000Y56428680D01*
X20059000Y30947320D01*
X19852680Y30741000D01*
X19244037Y30741000D01*
X19149452Y30969914D01*
X18779860Y31340152D01*
X18296717Y31540771D01*
X17773578Y31541227D01*
X17290086Y31341452D01*
X16919848Y30971860D01*
X16763864Y30596209D01*
X16609452Y30969914D01*
X16239860Y31340152D01*
X15756717Y31540771D01*
X15233578Y31541227D01*
X14750086Y31341452D01*
X14379848Y30971860D01*
X14179229Y30488717D01*
X14178980Y30203424D01*
X14134890Y30600341D01*
X14053714Y30796316D01*
X13912500Y30922871D01*
X13215630Y30226000D01*
X13912500Y29529129D01*
X14053714Y29655684D01*
X14178879Y30087590D01*
X14178773Y29965578D01*
X14378548Y29482086D01*
X14748140Y29111848D01*
X14979000Y29015986D01*
X14979000Y26598846D01*
X12560538Y23622278D01*
X12454615Y23666261D01*
X11931679Y23666717D01*
X11448374Y23467020D01*
X11078280Y23097571D01*
X10877739Y22614615D01*
X10877283Y22091679D01*
X11076980Y21608374D01*
X11446429Y21238280D01*
X11929385Y21037739D01*
X12452321Y21037283D01*
X12935626Y21236980D01*
X13305720Y21606429D01*
X13506261Y22089385D01*
X13506717Y22612321D01*
X13358509Y22971012D01*
X15893699Y26091245D01*
X15928456Y26157046D01*
X15969798Y26218918D01*
X15975029Y26245214D01*
X15987552Y26268923D01*
X15994482Y26343015D01*
X16009000Y26416000D01*
X16009000Y29015963D01*
X16237914Y29110548D01*
X16608152Y29480140D01*
X16764136Y29855791D01*
X16918548Y29482086D01*
X17288140Y29111848D01*
X17771283Y28911229D01*
X18294422Y28910773D01*
X18777914Y29110548D01*
X19148152Y29480140D01*
X19244014Y29711000D01*
X20066000Y29711000D01*
X20263082Y29750202D01*
X20430160Y29861840D01*
X20938160Y30369840D01*
X21049798Y30536918D01*
X21089000Y30734000D01*
X21089000Y56642000D01*
X21049798Y56839082D01*
X20938160Y57006160D01*
X20176160Y57768160D01*
X20009082Y57879798D01*
X19812000Y57919000D01*
X19243486Y57919000D01*
X19149020Y58147626D01*
X18779571Y58517720D01*
X18549000Y58613462D01*
X18549000Y59730680D01*
X20696860Y61878540D01*
X20808498Y62045618D01*
X20847700Y62242700D01*
X20847700Y68094362D01*
X20963472Y68142198D01*
X21277400Y68455579D01*
X21334661Y68593478D01*
X21390958Y68457228D01*
X21704339Y68143300D01*
X21821760Y68094543D01*
X21821760Y63952080D01*
X21479840Y63610160D01*
X21368202Y63443082D01*
X21329000Y63246000D01*
X21329000Y27899320D01*
X19344680Y25915000D01*
X18989486Y25915000D01*
X18895020Y26143626D01*
X18525571Y26513720D01*
X18042615Y26714261D01*
X17519679Y26714717D01*
X17036374Y26515020D01*
X16666280Y26145571D01*
X16465739Y25662615D01*
X16465283Y25139679D01*
X16664980Y24656374D01*
X17034429Y24286280D01*
X17265000Y24190538D01*
X17265000Y17272000D01*
X17304202Y17074918D01*
X17415840Y16907840D01*
X20971840Y13351840D01*
X21138918Y13240202D01*
X21336000Y13201000D01*
X24443963Y13201000D01*
X24538548Y12972086D01*
X24908140Y12601848D01*
X25391283Y12401229D01*
X25914422Y12400773D01*
X26397914Y12600548D01*
X26768152Y12970140D01*
X26968771Y13453283D01*
X26969227Y13976422D01*
X26863495Y14232313D01*
X30664805Y14232313D01*
X30717917Y13745479D01*
X30802040Y13542386D01*
X30944923Y13413853D01*
X31653470Y14122400D01*
X32176730Y14122400D01*
X32885277Y13413853D01*
X33028160Y13542386D01*
X33165395Y14012487D01*
X33112283Y14499321D01*
X33028160Y14702414D01*
X32885277Y14830947D01*
X32176730Y14122400D01*
X31653470Y14122400D01*
X30944923Y14830947D01*
X30802040Y14702414D01*
X30664805Y14232313D01*
X26863495Y14232313D01*
X26769452Y14459914D01*
X26399860Y14830152D01*
X26024209Y14986136D01*
X26397914Y15140548D01*
X26768152Y15510140D01*
X26968771Y15993283D01*
X26969227Y16516422D01*
X26769452Y16999914D01*
X26399860Y17370152D01*
X25916717Y17570771D01*
X25631424Y17571020D01*
X26028341Y17615110D01*
X26224316Y17696286D01*
X26350871Y17837500D01*
X25654000Y18534370D01*
X24957129Y17837500D01*
X25083684Y17696286D01*
X25515590Y17571121D01*
X25393578Y17571227D01*
X24910086Y17371452D01*
X24539848Y17001860D01*
X24443986Y16771000D01*
X21549320Y16771000D01*
X19565000Y18755320D01*
X19565000Y18902061D01*
X24419746Y18902061D01*
X24473110Y18421659D01*
X24554286Y18225684D01*
X24695500Y18099129D01*
X25392370Y18796000D01*
X25915630Y18796000D01*
X26612500Y18099129D01*
X26753714Y18225684D01*
X26888254Y18689939D01*
X26834890Y19170341D01*
X26753714Y19366316D01*
X26612500Y19492871D01*
X25915630Y18796000D01*
X25392370Y18796000D01*
X24695500Y19492871D01*
X24554286Y19366316D01*
X24419746Y18902061D01*
X19565000Y18902061D01*
X19565000Y19754500D01*
X24957129Y19754500D01*
X25654000Y19057630D01*
X26350871Y19754500D01*
X26224316Y19895714D01*
X25760061Y20030254D01*
X25279659Y19976890D01*
X25083684Y19895714D01*
X24957129Y19754500D01*
X19565000Y19754500D01*
X19565000Y22091679D01*
X21037283Y22091679D01*
X21236980Y21608374D01*
X21606429Y21238280D01*
X22089385Y21037739D01*
X22612321Y21037283D01*
X23095626Y21236980D01*
X23465720Y21606429D01*
X23561462Y21837000D01*
X28702000Y21837000D01*
X28899082Y21876202D01*
X29066160Y21987840D01*
X30733937Y23655617D01*
X30786075Y23529434D01*
X31160165Y23154691D01*
X31503078Y23012301D01*
X31162134Y22871425D01*
X30787391Y22497335D01*
X30584331Y22008314D01*
X30583869Y21478809D01*
X30786075Y20989434D01*
X31160165Y20614691D01*
X31503078Y20472301D01*
X31162134Y20331425D01*
X30787391Y19957335D01*
X30584331Y19468314D01*
X30583869Y18938809D01*
X30786075Y18449434D01*
X31160165Y18074691D01*
X31503078Y17932301D01*
X31162134Y17791425D01*
X30787391Y17417335D01*
X30584331Y16928314D01*
X30583869Y16398809D01*
X30786075Y15909434D01*
X31160165Y15534691D01*
X31649067Y15331680D01*
X31538179Y15319583D01*
X31335086Y15235460D01*
X31206553Y15092577D01*
X31915100Y14384030D01*
X32623647Y15092577D01*
X32495114Y15235460D01*
X32167227Y15331179D01*
X32178691Y15331169D01*
X32668066Y15533375D01*
X33042809Y15907465D01*
X33142439Y16147400D01*
X33924280Y16147400D01*
X36838240Y13233440D01*
X36838240Y9629638D01*
X36722468Y9581802D01*
X36408540Y9268421D01*
X36238434Y8858760D01*
X36238047Y8415186D01*
X36407438Y8005228D01*
X36720819Y7691300D01*
X37130480Y7521194D01*
X37574054Y7520807D01*
X37984012Y7690198D01*
X38297940Y8003579D01*
X38334149Y8090780D01*
X38334149Y7786370D01*
X38356114Y7669638D01*
X38425102Y7562427D01*
X38530366Y7490503D01*
X38655320Y7465199D01*
X40054200Y7465199D01*
X40170932Y7487164D01*
X40278143Y7556152D01*
X40350067Y7661416D01*
X40375371Y7786370D01*
X40375371Y9485630D01*
X40353406Y9602362D01*
X40284418Y9709573D01*
X40179154Y9781497D01*
X40054200Y9806801D01*
X39631000Y9806801D01*
X39631000Y13716000D01*
X39591798Y13913082D01*
X39480160Y14080160D01*
X33993760Y19566560D01*
X33826682Y19678198D01*
X33629600Y19717400D01*
X33142451Y19717400D01*
X33044125Y19955366D01*
X32670035Y20330109D01*
X32327122Y20472499D01*
X32668066Y20613375D01*
X33042809Y20987465D01*
X33245869Y21476486D01*
X33246331Y22005991D01*
X33044125Y22495366D01*
X32670035Y22870109D01*
X32327122Y23012499D01*
X32668066Y23153375D01*
X33042809Y23527465D01*
X33245869Y24016486D01*
X33246331Y24545991D01*
X33044125Y25035366D01*
X32670035Y25410109D01*
X32327122Y25552499D01*
X32668066Y25693375D01*
X33042809Y26067465D01*
X33245869Y26556486D01*
X33246331Y27085991D01*
X33044125Y27575366D01*
X32670035Y27950109D01*
X32327122Y28092499D01*
X32668066Y28233375D01*
X33042809Y28607465D01*
X33245869Y29096486D01*
X33246331Y29625991D01*
X33044125Y30115366D01*
X32670035Y30490109D01*
X32181133Y30693120D01*
X32292021Y30705217D01*
X32495114Y30789340D01*
X32623647Y30932223D01*
X31915100Y31640770D01*
X31206553Y30932223D01*
X31335086Y30789340D01*
X31662973Y30693621D01*
X31651509Y30693631D01*
X31162134Y30491425D01*
X30787391Y30117335D01*
X30687761Y29877400D01*
X30378400Y29877400D01*
X30181318Y29838198D01*
X30014240Y29726560D01*
X28234680Y27947000D01*
X25407000Y27947000D01*
X25407000Y39617679D01*
X25609283Y39617679D01*
X25808980Y39134374D01*
X26178429Y38764280D01*
X26661385Y38563739D01*
X27184321Y38563283D01*
X27667626Y38762980D01*
X28037720Y39132429D01*
X28133462Y39363000D01*
X29250680Y39363000D01*
X29455440Y39158240D01*
X29622518Y39046602D01*
X29819600Y39007400D01*
X30687749Y39007400D01*
X30786075Y38769434D01*
X31160165Y38394691D01*
X31503078Y38252301D01*
X31162134Y38111425D01*
X30787391Y37737335D01*
X30584331Y37248314D01*
X30583869Y36718809D01*
X30786075Y36229434D01*
X31160165Y35854691D01*
X31503078Y35712301D01*
X31162134Y35571425D01*
X30787391Y35197335D01*
X30687761Y34957400D01*
X29870400Y34957400D01*
X29673318Y34918198D01*
X29506240Y34806560D01*
X29099840Y34400160D01*
X28988202Y34233082D01*
X28949000Y34036000D01*
X28949000Y30439320D01*
X28742680Y30233000D01*
X28133486Y30233000D01*
X28039020Y30461626D01*
X27669571Y30831720D01*
X27186615Y31032261D01*
X26663679Y31032717D01*
X26180374Y30833020D01*
X25810280Y30463571D01*
X25609739Y29980615D01*
X25609283Y29457679D01*
X25808980Y28974374D01*
X26178429Y28604280D01*
X26661385Y28403739D01*
X27184321Y28403283D01*
X27667626Y28602980D01*
X28037720Y28972429D01*
X28133462Y29203000D01*
X28956000Y29203000D01*
X29153082Y29242202D01*
X29320160Y29353840D01*
X29828160Y29861840D01*
X29939798Y30028918D01*
X29979000Y30226000D01*
X29979000Y32012313D01*
X30664805Y32012313D01*
X30717917Y31525479D01*
X30802040Y31322386D01*
X30944923Y31193853D01*
X31653470Y31902400D01*
X32176730Y31902400D01*
X32885277Y31193853D01*
X33028160Y31322386D01*
X33165395Y31792487D01*
X33112283Y32279321D01*
X33028160Y32482414D01*
X32885277Y32610947D01*
X32176730Y31902400D01*
X31653470Y31902400D01*
X30944923Y32610947D01*
X30802040Y32482414D01*
X30664805Y32012313D01*
X29979000Y32012313D01*
X29979000Y33822680D01*
X30083720Y33927400D01*
X30687749Y33927400D01*
X30786075Y33689434D01*
X31160165Y33314691D01*
X31649067Y33111680D01*
X31538179Y33099583D01*
X31335086Y33015460D01*
X31206553Y32872577D01*
X31915100Y32164030D01*
X32623647Y32872577D01*
X32495114Y33015460D01*
X32167227Y33111179D01*
X32178691Y33111169D01*
X32668066Y33313375D01*
X33042809Y33687465D01*
X33245869Y34176486D01*
X33246331Y34705991D01*
X33044125Y35195366D01*
X32670035Y35570109D01*
X32327122Y35712499D01*
X32668066Y35853375D01*
X33042809Y36227465D01*
X33142439Y36467400D01*
X33162280Y36467400D01*
X33775000Y35854680D01*
X33775000Y27940000D01*
X33814202Y27742918D01*
X33925840Y27575840D01*
X35807000Y25694680D01*
X35807000Y18034000D01*
X35846202Y17836918D01*
X35957840Y17669840D01*
X37481840Y16145840D01*
X37648918Y16034202D01*
X37846000Y15995000D01*
X49022000Y15995000D01*
X49219082Y16034202D01*
X49386160Y16145840D01*
X51926160Y18685840D01*
X52037798Y18852918D01*
X52077000Y19050000D01*
X52077000Y34798000D01*
X52037798Y34995082D01*
X51926160Y35162160D01*
X51418160Y35670160D01*
X51251082Y35781798D01*
X51054000Y35821000D01*
X49723486Y35821000D01*
X49629020Y36049626D01*
X49259571Y36419720D01*
X48776615Y36620261D01*
X48253679Y36620717D01*
X47770374Y36421020D01*
X47400280Y36051571D01*
X47199739Y35568615D01*
X47199283Y35045679D01*
X47398980Y34562374D01*
X47768429Y34192280D01*
X48251385Y33991739D01*
X48774321Y33991283D01*
X49257626Y34190980D01*
X49627720Y34560429D01*
X49723462Y34791000D01*
X50840680Y34791000D01*
X51047000Y34584680D01*
X51047000Y19263320D01*
X48808680Y17025000D01*
X38059320Y17025000D01*
X36837000Y18247320D01*
X36837000Y25680680D01*
X37839000Y24678680D01*
X37839000Y22037486D01*
X37610374Y21943020D01*
X37240280Y21573571D01*
X37039739Y21090615D01*
X37039283Y20567679D01*
X37238980Y20084374D01*
X37608429Y19714280D01*
X38091385Y19513739D01*
X38614321Y19513283D01*
X39097626Y19712980D01*
X39467720Y20082429D01*
X39668261Y20565385D01*
X39668717Y21088321D01*
X39469020Y21571626D01*
X39099571Y21941720D01*
X38869000Y22037462D01*
X38869000Y24892000D01*
X38829798Y25089082D01*
X38718160Y25256160D01*
X35567000Y28407320D01*
X35567000Y41402000D01*
X35527798Y41599082D01*
X35416160Y41766160D01*
X34755760Y42426560D01*
X34588682Y42538198D01*
X34391600Y42577400D01*
X33142451Y42577400D01*
X33044125Y42815366D01*
X32670035Y43190109D01*
X32327122Y43332499D01*
X32668066Y43473375D01*
X33042809Y43847465D01*
X33245869Y44336486D01*
X33246331Y44865991D01*
X33044125Y45355366D01*
X32670035Y45730109D01*
X32327122Y45872499D01*
X32668066Y46013375D01*
X33042809Y46387465D01*
X33073736Y46461944D01*
X37839000Y41696680D01*
X37839000Y41595486D01*
X37610374Y41501020D01*
X37240280Y41131571D01*
X37039739Y40648615D01*
X37039283Y40125679D01*
X37238980Y39642374D01*
X37608429Y39272280D01*
X38091385Y39071739D01*
X38614321Y39071283D01*
X39097626Y39270980D01*
X39467720Y39640429D01*
X39668261Y40123385D01*
X39668717Y40646321D01*
X39469020Y41129626D01*
X39099571Y41499720D01*
X38869000Y41595462D01*
X38869000Y41910000D01*
X38829798Y42107082D01*
X38718160Y42274160D01*
X35214820Y45777500D01*
X42737129Y45777500D01*
X42863684Y45636286D01*
X43327939Y45501746D01*
X43808341Y45555110D01*
X44004316Y45636286D01*
X44130871Y45777500D01*
X43434000Y46474370D01*
X42737129Y45777500D01*
X35214820Y45777500D01*
X34150259Y46842061D01*
X42199746Y46842061D01*
X42253110Y46361659D01*
X42334286Y46165684D01*
X42475500Y46039129D01*
X43172370Y46736000D01*
X42475500Y47432871D01*
X42334286Y47306316D01*
X42199746Y46842061D01*
X34150259Y46842061D01*
X33485760Y47506560D01*
X33318682Y47618198D01*
X33144318Y47652881D01*
X33127122Y47694500D01*
X42737129Y47694500D01*
X43434000Y46997630D01*
X44130871Y47694500D01*
X44004316Y47835714D01*
X43540061Y47970254D01*
X43059659Y47916890D01*
X42863684Y47835714D01*
X42737129Y47694500D01*
X33127122Y47694500D01*
X33044125Y47895366D01*
X32670035Y48270109D01*
X32181014Y48473169D01*
X31651509Y48473631D01*
X31162134Y48271425D01*
X30787391Y47897335D01*
X30584331Y47408314D01*
X30583869Y46878809D01*
X30786075Y46389434D01*
X31160165Y46014691D01*
X31503078Y45872301D01*
X31162134Y45731425D01*
X30787391Y45357335D01*
X30687761Y45117400D01*
X29778920Y45117400D01*
X29471000Y45425320D01*
X29471000Y55920680D01*
X29914579Y56364259D01*
X29988429Y56290280D01*
X30471385Y56089739D01*
X30994321Y56089283D01*
X31477626Y56288980D01*
X31847720Y56658429D01*
X32048261Y57141385D01*
X32048717Y57664321D01*
X31849020Y58147626D01*
X31479571Y58517720D01*
X30996615Y58718261D01*
X30473679Y58718717D01*
X29990374Y58519020D01*
X29620280Y58149571D01*
X29419739Y57666615D01*
X29419442Y57325762D01*
X28591840Y56498160D01*
X28480202Y56331082D01*
X28441000Y56134000D01*
X28441000Y45212000D01*
X28480202Y45014918D01*
X28591840Y44847840D01*
X29201440Y44238240D01*
X29368518Y44126602D01*
X29565600Y44087400D01*
X30687749Y44087400D01*
X30786075Y43849434D01*
X31160165Y43474691D01*
X31503078Y43332301D01*
X31162134Y43191425D01*
X30787391Y42817335D01*
X30584331Y42328314D01*
X30583869Y41798809D01*
X30786075Y41309434D01*
X31160165Y40934691D01*
X31503078Y40792301D01*
X31162134Y40651425D01*
X30787391Y40277335D01*
X30687761Y40037400D01*
X30032920Y40037400D01*
X29828160Y40242160D01*
X29661082Y40353798D01*
X29464000Y40393000D01*
X28133486Y40393000D01*
X28039020Y40621626D01*
X27669571Y40991720D01*
X27186615Y41192261D01*
X26663679Y41192717D01*
X26180374Y40993020D01*
X25810280Y40623571D01*
X25609739Y40140615D01*
X25609283Y39617679D01*
X25407000Y39617679D01*
X25407000Y42411000D01*
X25714514Y42411000D01*
X25808980Y42182374D01*
X26178429Y41812280D01*
X26661385Y41611739D01*
X27184321Y41611283D01*
X27667626Y41810980D01*
X28037720Y42180429D01*
X28238261Y42663385D01*
X28238717Y43186321D01*
X28039020Y43669626D01*
X27669571Y44039720D01*
X27186615Y44240261D01*
X26663679Y44240717D01*
X26180374Y44041020D01*
X25810280Y43671571D01*
X25714538Y43441000D01*
X24892000Y43441000D01*
X24694918Y43401798D01*
X24527840Y43290160D01*
X24416202Y43123082D01*
X24377000Y42926000D01*
X24377000Y27432000D01*
X24416202Y27234918D01*
X24527840Y27067840D01*
X24694918Y26956202D01*
X24892000Y26917000D01*
X28448000Y26917000D01*
X28645082Y26956202D01*
X28812160Y27067840D01*
X30591720Y28847400D01*
X30687749Y28847400D01*
X30786075Y28609434D01*
X31160165Y28234691D01*
X31503078Y28092301D01*
X31162134Y27951425D01*
X30787391Y27577335D01*
X30687761Y27337400D01*
X29870400Y27337400D01*
X29673318Y27298198D01*
X29506240Y27186560D01*
X28759421Y26439741D01*
X28685571Y26513720D01*
X28202615Y26714261D01*
X27679679Y26714717D01*
X27196374Y26515020D01*
X26826280Y26145571D01*
X26625739Y25662615D01*
X26625283Y25139679D01*
X26824980Y24656374D01*
X27194429Y24286280D01*
X27677385Y24085739D01*
X28200321Y24085283D01*
X28683626Y24284980D01*
X29053720Y24654429D01*
X29254261Y25137385D01*
X29254558Y25478238D01*
X30083720Y26307400D01*
X30687749Y26307400D01*
X30786075Y26069434D01*
X31160165Y25694691D01*
X31503078Y25552301D01*
X31162134Y25411425D01*
X30787391Y25037335D01*
X30687761Y24797400D01*
X30632400Y24797400D01*
X30435318Y24758198D01*
X30268240Y24646560D01*
X28488680Y22867000D01*
X23561486Y22867000D01*
X23467020Y23095626D01*
X23097571Y23465720D01*
X22614615Y23666261D01*
X22091679Y23666717D01*
X21608374Y23467020D01*
X21238280Y23097571D01*
X21037739Y22614615D01*
X21037283Y22091679D01*
X19565000Y22091679D01*
X19565000Y22646680D01*
X23478160Y26559840D01*
X23589798Y26726918D01*
X23629000Y26924000D01*
X23629000Y52364680D01*
X23835320Y52571000D01*
X25714514Y52571000D01*
X25808980Y52342374D01*
X26178429Y51972280D01*
X26661385Y51771739D01*
X27184321Y51771283D01*
X27667626Y51970980D01*
X28037720Y52340429D01*
X28238261Y52823385D01*
X28238717Y53346321D01*
X28039020Y53829626D01*
X27669571Y54199720D01*
X27186615Y54400261D01*
X26663679Y54400717D01*
X26180374Y54201020D01*
X25810280Y53831571D01*
X25714538Y53601000D01*
X23622000Y53601000D01*
X23424918Y53561798D01*
X23257840Y53450160D01*
X22749840Y52942160D01*
X22638202Y52775082D01*
X22599000Y52578000D01*
X22599000Y27137320D01*
X18685840Y23224160D01*
X18574202Y23057082D01*
X18535000Y22860000D01*
X18535000Y18542000D01*
X18574202Y18344918D01*
X18685840Y18177840D01*
X20971840Y15891840D01*
X21138918Y15780202D01*
X21336000Y15741000D01*
X24443963Y15741000D01*
X24538548Y15512086D01*
X24908140Y15141848D01*
X25283791Y14985864D01*
X24910086Y14831452D01*
X24539848Y14461860D01*
X24443986Y14231000D01*
X21549320Y14231000D01*
X18295000Y17485320D01*
X18295000Y24190514D01*
X18523626Y24284980D01*
X18893720Y24654429D01*
X18989462Y24885000D01*
X19558000Y24885000D01*
X19755082Y24924202D01*
X19922160Y25035840D01*
X22208160Y27321840D01*
X22319798Y27488918D01*
X22359000Y27686000D01*
X22359000Y63032680D01*
X22700920Y63374600D01*
X22812558Y63541678D01*
X22851760Y63738760D01*
X22851760Y68094362D01*
X22967532Y68142198D01*
X23281460Y68455579D01*
X23337448Y68590412D01*
X23392478Y68457228D01*
X23705859Y68143300D01*
X24115520Y67973194D01*
X24559094Y67972807D01*
X24969052Y68142198D01*
X25282980Y68455579D01*
X25337694Y68587346D01*
X25391458Y68457228D01*
X25704839Y68143300D01*
X25822260Y68094543D01*
X25822260Y65102740D01*
X25861462Y64905658D01*
X25973100Y64738580D01*
X29099840Y61611840D01*
X29266918Y61500202D01*
X29464000Y61461000D01*
X39156680Y61461000D01*
X40379000Y60238680D01*
X40379000Y58613486D01*
X40150374Y58519020D01*
X39780280Y58149571D01*
X39579739Y57666615D01*
X39579283Y57143679D01*
X39778980Y56660374D01*
X40148429Y56290280D01*
X40631385Y56089739D01*
X41154321Y56089283D01*
X41637626Y56288980D01*
X42007720Y56658429D01*
X42103462Y56889000D01*
X43220680Y56889000D01*
X47999000Y52110680D01*
X47999000Y47946037D01*
X47770086Y47851452D01*
X47399848Y47481860D01*
X47243864Y47106209D01*
X47089452Y47479914D01*
X46719860Y47850152D01*
X46236717Y48050771D01*
X45713578Y48051227D01*
X45230086Y47851452D01*
X44859848Y47481860D01*
X44659229Y46998717D01*
X44658980Y46713424D01*
X44614890Y47110341D01*
X44533714Y47306316D01*
X44392500Y47432871D01*
X43695630Y46736000D01*
X44392500Y46039129D01*
X44533714Y46165684D01*
X44658879Y46597590D01*
X44658773Y46475578D01*
X44858548Y45992086D01*
X45228140Y45621848D01*
X45534000Y45494844D01*
X45534000Y43434000D01*
X45567493Y43265619D01*
X45662873Y43122873D01*
X46678873Y42106873D01*
X46821619Y42011493D01*
X46990000Y41978000D01*
X47823746Y41978000D01*
X48074000Y41727746D01*
X48074000Y41626475D01*
X47770374Y41501020D01*
X47400280Y41131571D01*
X47199739Y40648615D01*
X47199283Y40125679D01*
X47398980Y39642374D01*
X47768429Y39272280D01*
X48251385Y39071739D01*
X48774321Y39071283D01*
X49257626Y39270980D01*
X49627720Y39640429D01*
X49828261Y40123385D01*
X49828717Y40646321D01*
X49629020Y41129626D01*
X49259571Y41499720D01*
X48954000Y41626604D01*
X48954000Y41910000D01*
X48920507Y42078381D01*
X48825127Y42221127D01*
X48317127Y42729127D01*
X48174381Y42824507D01*
X48006000Y42858000D01*
X47172254Y42858000D01*
X46414000Y43616254D01*
X46414000Y45494973D01*
X46717914Y45620548D01*
X47088152Y45990140D01*
X47244136Y46365791D01*
X47398548Y45992086D01*
X47768140Y45621848D01*
X48251283Y45421229D01*
X48774422Y45420773D01*
X49257914Y45620548D01*
X49628152Y45990140D01*
X49828771Y46473283D01*
X49829227Y46996422D01*
X49629452Y47479914D01*
X49259860Y47850152D01*
X49029000Y47946014D01*
X49029000Y52324000D01*
X48989798Y52521082D01*
X48878160Y52688160D01*
X43798160Y57768160D01*
X43631082Y57879798D01*
X43434000Y57919000D01*
X42103486Y57919000D01*
X42009020Y58147626D01*
X41639571Y58517720D01*
X41409000Y58613462D01*
X41409000Y60452000D01*
X41369798Y60649082D01*
X41258160Y60816160D01*
X39734160Y62340160D01*
X39567082Y62451798D01*
X39370000Y62491000D01*
X29677320Y62491000D01*
X26852260Y65316060D01*
X26852260Y68094362D01*
X26968032Y68142198D01*
X27101929Y68275862D01*
X27785732Y68275862D01*
X27887416Y68155506D01*
X28278430Y68054731D01*
X28678246Y68111261D01*
X28785064Y68155506D01*
X28886748Y68275862D01*
X28336240Y68826370D01*
X27785732Y68275862D01*
X27101929Y68275862D01*
X27281960Y68455579D01*
X27380999Y68694092D01*
X27403746Y68639176D01*
X27524102Y68537492D01*
X28074610Y69088000D01*
X28597870Y69088000D01*
X29148378Y68537492D01*
X29268734Y68639176D01*
X29369509Y69030190D01*
X29312979Y69430006D01*
X29268734Y69536824D01*
X29148378Y69638508D01*
X28597870Y69088000D01*
X28074610Y69088000D01*
X27524102Y69638508D01*
X27403746Y69536824D01*
X27386266Y69469000D01*
X27283062Y69718772D01*
X27102013Y69900138D01*
X27785732Y69900138D01*
X28336240Y69349630D01*
X28886748Y69900138D01*
X28785064Y70020494D01*
X28394050Y70121269D01*
X27994234Y70064739D01*
X27887416Y70020494D01*
X27785732Y69900138D01*
X27102013Y69900138D01*
X26969681Y70032700D01*
X26560020Y70202806D01*
X26116446Y70203193D01*
X25706488Y70033802D01*
X25392560Y69720421D01*
X25337846Y69588654D01*
X25284082Y69718772D01*
X24970701Y70032700D01*
X24853280Y70081457D01*
X24853280Y71622960D01*
X25359320Y72129000D01*
X36362680Y72129000D01*
X51301000Y57190680D01*
X51301000Y38821320D01*
X50586680Y38107000D01*
X46482000Y38107000D01*
X46284918Y38067798D01*
X46117840Y37956160D01*
X45101840Y36940160D01*
X44990202Y36773082D01*
X44951000Y36576000D01*
X44951000Y33789000D01*
X39370000Y33789000D01*
X39172918Y33749798D01*
X39005840Y33638160D01*
X37989840Y32622160D01*
X37878202Y32455082D01*
X37839000Y32258000D01*
X37839000Y30928037D01*
X37610086Y30833452D01*
X37239848Y30463860D01*
X37039229Y29980717D01*
X37038773Y29457578D01*
X37238548Y28974086D01*
X37608140Y28603848D01*
X38091283Y28403229D01*
X38614422Y28402773D01*
X39097914Y28602548D01*
X39468152Y28972140D01*
X39624136Y29347791D01*
X39778548Y28974086D01*
X40148140Y28603848D01*
X40379000Y28507986D01*
X40379000Y23876000D01*
X40418202Y23678918D01*
X40529840Y23511840D01*
X41291840Y22749840D01*
X41458918Y22638202D01*
X41656000Y22599000D01*
X47999000Y22599000D01*
X47999000Y22037486D01*
X47770374Y21943020D01*
X47400280Y21573571D01*
X47199739Y21090615D01*
X47199283Y20567679D01*
X47398980Y20084374D01*
X47768429Y19714280D01*
X48251385Y19513739D01*
X48774321Y19513283D01*
X49257626Y19712980D01*
X49627720Y20082429D01*
X49828261Y20565385D01*
X49828717Y21088321D01*
X49629020Y21571626D01*
X49259571Y21941720D01*
X49029000Y22037462D01*
X49029000Y22860000D01*
X48989798Y23057082D01*
X48878160Y23224160D01*
X48624160Y23478160D01*
X48457082Y23589798D01*
X48260000Y23629000D01*
X41869320Y23629000D01*
X41409000Y24089320D01*
X41409000Y28507963D01*
X41637914Y28602548D01*
X41795140Y28759500D01*
X42737129Y28759500D01*
X42863684Y28618286D01*
X43327939Y28483746D01*
X43808341Y28537110D01*
X44004316Y28618286D01*
X44130871Y28759500D01*
X43434000Y29456370D01*
X42737129Y28759500D01*
X41795140Y28759500D01*
X42008152Y28972140D01*
X42208771Y29455283D01*
X42209020Y29740576D01*
X42253110Y29343659D01*
X42334286Y29147684D01*
X42475500Y29021129D01*
X43172370Y29718000D01*
X43695630Y29718000D01*
X44392500Y29021129D01*
X44533714Y29147684D01*
X44668254Y29611939D01*
X44614890Y30092341D01*
X44533714Y30288316D01*
X44392500Y30414871D01*
X43695630Y29718000D01*
X43172370Y29718000D01*
X42475500Y30414871D01*
X42334286Y30288316D01*
X42209121Y29856410D01*
X42209227Y29978422D01*
X42009452Y30461914D01*
X41795241Y30676500D01*
X42737129Y30676500D01*
X43434000Y29979630D01*
X44130871Y30676500D01*
X44004316Y30817714D01*
X43540061Y30952254D01*
X43059659Y30898890D01*
X42863684Y30817714D01*
X42737129Y30676500D01*
X41795241Y30676500D01*
X41639860Y30832152D01*
X41156717Y31032771D01*
X40633578Y31033227D01*
X40150086Y30833452D01*
X39779848Y30463860D01*
X39623864Y30088209D01*
X39469452Y30461914D01*
X39099860Y30832152D01*
X38869000Y30928014D01*
X38869000Y32044680D01*
X39583320Y32759000D01*
X44951000Y32759000D01*
X44951000Y26670000D01*
X44990202Y26472918D01*
X45101840Y26305840D01*
X46625840Y24781840D01*
X46792918Y24670202D01*
X46990000Y24631000D01*
X47304514Y24631000D01*
X47398980Y24402374D01*
X47768429Y24032280D01*
X48251385Y23831739D01*
X48774321Y23831283D01*
X49257626Y24030980D01*
X49627720Y24400429D01*
X49828261Y24883385D01*
X49828717Y25406321D01*
X49629020Y25889626D01*
X49259571Y26259720D01*
X48776615Y26460261D01*
X48253679Y26460717D01*
X47770374Y26261020D01*
X47400280Y25891571D01*
X47304538Y25661000D01*
X47203320Y25661000D01*
X45981000Y26883320D01*
X45981000Y36362680D01*
X46695320Y37077000D01*
X50800000Y37077000D01*
X50997082Y37116202D01*
X51164160Y37227840D01*
X52180160Y38243840D01*
X52291798Y38410918D01*
X52331000Y38608000D01*
X52331000Y57404000D01*
X52291798Y57601082D01*
X52180160Y57768160D01*
X36940160Y73008160D01*
X36773082Y73119798D01*
X36576000Y73159000D01*
X25146000Y73159000D01*
X24948918Y73119798D01*
X24781840Y73008160D01*
X23974120Y72200440D01*
X23862482Y72033362D01*
X23823280Y71836280D01*
X23823280Y70081638D01*
X23707508Y70033802D01*
X23393580Y69720421D01*
X23337592Y69585588D01*
X23282562Y69718772D01*
X22969181Y70032700D01*
X22559520Y70202806D01*
X22115946Y70203193D01*
X21705988Y70033802D01*
X21392060Y69720421D01*
X21334799Y69582522D01*
X21278502Y69718772D01*
X20965121Y70032700D01*
X20555460Y70202806D01*
X20111886Y70203193D01*
X19701928Y70033802D01*
X19388000Y69720421D01*
X19333286Y69588654D01*
X19279522Y69718772D01*
X18966141Y70032700D01*
X18848720Y70081457D01*
X18848720Y71328280D01*
X18809518Y71525362D01*
X18697880Y71692440D01*
X17382160Y73008160D01*
X17215082Y73119798D01*
X17018000Y73159000D01*
X10160000Y73159000D01*
X9962918Y73119798D01*
X9795840Y73008160D01*
X4715840Y67928160D01*
X4604202Y67761082D01*
X4565000Y67564000D01*
X190000Y67564000D01*
X190000Y75502000D01*
X41323300Y75502000D01*
X53912000Y62913300D01*
M02*
