M48
;DRILL file {KiCad 4.0.2-stable} date ven. 22 juil. 2016 18:14:06 CEST
;FORMAT={-:-/ absolute / inch / decimal}
FMAT,2
INCH,TZ
T1C0.028
T2C0.031
T3C0.039
T4C0.040
%
G90
G05
M72
T1
X0.5642Y2.72
X1.5494Y0.34
X1.8794Y0.34
T2
X0.51Y1.19
X0.61Y1.19
X0.643Y2.72
X0.71Y1.19
X0.7218Y2.72
X0.8005Y2.72
X0.8794Y2.72
X0.9582Y2.72
X1.01Y0.74
X1.01Y0.64
X1.01Y0.54
X1.0369Y2.72
X1.1156Y2.72
X1.4706Y0.34
X1.51Y1.17
X1.61Y1.17
X1.71Y1.84
X1.71Y1.17
X1.8006Y0.34
X1.81Y1.84
X1.91Y1.84
T3
X0.48Y2.26
X0.48Y1.86
X0.48Y0.88
X0.6Y2.26
X0.6Y1.86
X0.7Y1.
X0.71Y2.26
X0.71Y1.86
X0.88Y0.88
X1.06Y2.09
X1.06Y1.69
X1.06Y1.57
X1.06Y1.17
X1.1Y1.
X1.21Y2.26
X1.51Y1.59
X1.51Y0.82
X1.61Y2.26
X1.91Y1.59
X1.91Y1.39
X1.91Y0.99
X1.91Y0.82
T4
X0.3565Y1.856
X0.3565Y1.756
X0.3565Y1.656
X0.3565Y1.556
X0.3565Y1.456
X0.3565Y1.356
X0.3565Y1.256
X0.3565Y1.156
X0.3565Y1.056
X0.3565Y0.956
X0.3565Y0.856
X0.3565Y0.756
X0.3565Y0.656
X0.3565Y0.556
X0.3565Y0.456
X1.2565Y1.856
X1.2565Y1.756
X1.2565Y1.656
X1.2565Y1.556
X1.2565Y1.456
X1.2565Y1.356
X1.2565Y1.256
X1.2565Y1.156
X1.2565Y1.056
X1.2565Y0.956
X1.2565Y0.856
X1.2565Y0.756
X1.2565Y0.656
X1.2565Y0.556
X1.2565Y0.456
T0
M30
